<svg xmlns="http://www.w3.org/2000/svg" viewBox="0 0 320.44 336.28" width="320.44" height="336.28"><title>institute-sprite-focus</title><path d="M31,32.14c0,3.77.1,7.28-2.67,10.31-2.35,2.57-6,3.73-9.47,3.83H15.44C12,46.18,8.32,45.08,6,42.51,3.2,39.48,3.3,36,3.3,32.21v-14c0-2.35.37-6.17-2.3-7.16v-.16h9.94v.16c-2.62,1-2.3,4.81-2.3,7.16v14c0,7,2.93,10.2,8.32,10.2a9.25,9.25,0,0,0,7.63-3.66c1.15-1.57,1.1-2.88,1.1-4.76V18.24c0-2.35.31-6.17-2.3-7.16v-.16h9.94l.05.16c-2.67,1-2.36,4.81-2.36,7.22L31,32.14Z" transform="translate(-1 -10)" fill="#eee"/><path d="M46.61,15.37,40.08,32.42,37.35,39.8c-1.1,2.92-1.46,4.44,1,5.38v.16H28.78v-.16c3-1.51,3.92-4.44,5.07-7.43l8.73-21.81c.74-1.88,1.73-4.08-.78-4.86v-.16h8.26L60.94,37.75c1.2,3,2.15,5.92,5.13,7.43v.16H55.35v-.16c2.56-1.15,2.14-1.72.73-5.38l-2.83-7.38L46.61,15.37Z" transform="translate(-1 -10)" fill="#eee"/><path d="M96.36,14.21A9.09,9.09,0,0,0,97.14,11v-.05h9v.16c-1.26.36-1.62,1.88-1.62,3.08L108,39.85c.31,2.46.58,3.87,2.67,5.33v.16H100.6v-.16c1.83-.57,2.14-2.14,2.14-3.92l-3-25.21L88,46c-2.62-2-3.35-3.4-4.61-6.33L73.5,16.1l-3,22.49c-.42,3.19-.79,5.49,1.67,6.59v.16H63.66v-.16c2.2-1.93,2.51-4.5,2.93-7.32l3-21.92c.21-1.46.79-3.55-1.62-4.86v-.16h9.16V11a6.25,6.25,0,0,0,.73,2.36L87.67,36.4l8.69-22.19Z" transform="translate(-1 -10)" fill="#eee"/><path d="M131.45,17.15a11.87,11.87,0,0,0-8.21-3.3c-3,0-6.75,1.15-6.75,4.76,0,7.17,18,7.06,18,16.74,0,5.6-5.85,10.83-14,10.83a27,27,0,0,1-9.36-1.57l-1.52-6.54A18.09,18.09,0,0,0,121,42.41c3,0,7.48-1.78,7.48-5.44,0-8.16-18-6.7-18-17.79,0-6.58,6.76-9.1,13.14-9.1a26.44,26.44,0,0,1,7.79,1.15v5.92Z" transform="translate(-1 -10)" fill="#eee"/><path d="M46.69,39.28a4.38,4.38,0,1,0-4.38-4.38,4.38,4.38,0,0,0,4.38,4.38Z" transform="translate(-1 -10)" fill="#eee"/><rect x="144.9" width="1" height="36.07" fill="#eee"/><path d="M155.06,16.08h1.73L159,22.82l2.24-6.77h1.35l2.24,6.77L167,16.08h1.68l-3.18,9.16h-1.37l-2.24-6.54-2.24,6.54h-1.37Z" transform="translate(-1 -10)" fill="#eee"/><path d="M170,15.77h1.69v1.49H170Zm.07,2.54h1.57v6.87h-1.57Z" transform="translate(-1 -10)" fill="#eee"/><path d="M173.61,18.31h1.57v1.07a2.47,2.47,0,0,1,2.14-1.21,2.36,2.36,0,0,1,2.45,2.64v4.37H178.2v-3.9c0-1.07-.54-1.68-1.47-1.68a1.53,1.53,0,0,0-1.55,1.7v3.88h-1.57Z" transform="translate(-1 -10)" fill="#eee"/><path d="M181.85,23.28V19.67H181V18.31h.87V16.43h1.57v1.88h1.85v1.36h-1.85V23a.75.75,0,0,0,.85.86,2.16,2.16,0,0,0,1-.23v1.28a2.66,2.66,0,0,1-1.41.36A1.76,1.76,0,0,1,181.85,23.28Z" transform="translate(-1 -10)" fill="#eee"/><path d="M186.79,15.69h1.57v3.69a2.47,2.47,0,0,1,2.15-1.21A2.36,2.36,0,0,1,193,20.81v4.37h-1.57v-3.9c0-1.07-.53-1.68-1.47-1.68a1.53,1.53,0,0,0-1.55,1.7v3.88h-1.57Z" transform="translate(-1 -10)" fill="#eee"/><path d="M194.83,18.31h1.57v1.55a2.43,2.43,0,0,1,2.43-1.68v1.67h-.09c-1.38,0-2.34.89-2.34,2.71v2.62h-1.57Z" transform="translate(-1 -10)" fill="#eee"/><path d="M199.63,21.78v0a3.66,3.66,0,0,1,7.32,0v0a3.58,3.58,0,0,1-3.68,3.57A3.55,3.55,0,0,1,199.63,21.78Zm5.74,0v0a2.12,2.12,0,0,0-2.1-2.21,2.06,2.06,0,0,0-2.07,2.18v0A2.12,2.12,0,0,0,203.29,24,2.07,2.07,0,0,0,205.37,21.78Z" transform="translate(-1 -10)" fill="#eee"/><path d="M208.48,18.31h1.57v1.15a2.75,2.75,0,0,1,2.33-1.29,3.29,3.29,0,0,1,3.2,3.56v0a3.29,3.29,0,0,1-3.2,3.56,2.8,2.8,0,0,1-2.33-1.21v3.15h-1.57Zm5.5,3.45v0a2,2,0,0,0-2-2.19,2.06,2.06,0,0,0-2,2.19v0a2.06,2.06,0,0,0,2,2.2A2,2,0,0,0,214,21.76Z" transform="translate(-1 -10)" fill="#eee"/><path d="M220.37,16.08H224c2.12,0,3.46,1.21,3.46,3v0c0,2-1.64,3.1-3.64,3.1H222v2.93h-1.6Zm3.46,4.73c1.21,0,2-.68,2-1.62v0c0-1.07-.77-1.63-2-1.63H222v3.28Z" transform="translate(-1 -10)" fill="#eee"/><path d="M226.41,23.4h1.73v1.78h-1.73Z" transform="translate(-1 -10)" fill="#eee"/><path d="M233.19,16.08h4.06a3.66,3.66,0,0,1,2.62.91,2.75,2.75,0,0,1,.76,2v0a2.73,2.73,0,0,1-2.17,2.75l2.45,3.45H239L236.79,22h-2v3.17h-1.6Zm3.94,4.51c1.14,0,1.87-.6,1.87-1.52v0c0-1-.7-1.51-1.88-1.51h-2.33v3.06Z" transform="translate(-1 -10)" fill="#eee"/><path d="M241.86,21.78v0a3.66,3.66,0,0,1,7.32,0v0a3.58,3.58,0,0,1-3.68,3.57A3.55,3.55,0,0,1,241.86,21.78Zm5.74,0v0a2.12,2.12,0,0,0-2.1-2.21,2.06,2.06,0,0,0-2.07,2.18v0A2.12,2.12,0,0,0,245.52,24,2.07,2.07,0,0,0,247.6,21.78Z" transform="translate(-1 -10)" fill="#eee"/><path d="M250.33,21.78v0a3.54,3.54,0,0,1,3.56-3.59,3.42,3.42,0,0,1,2.74,1.18l-1,1.06a2.3,2.3,0,0,0-1.78-.86,2.06,2.06,0,0,0-2,2.18v0A2.09,2.09,0,0,0,254,24a2.42,2.42,0,0,0,1.79-.86l.94.94a3.45,3.45,0,0,1-2.8,1.28A3.51,3.51,0,0,1,250.33,21.78Z" transform="translate(-1 -10)" fill="#eee"/><path d="M258,15.69h1.58v5.67l2.84-3.05h1.91l-2.73,2.8,2.82,4.07H262.6l-2.06-3-1,1v2H258Z" transform="translate(-1 -10)" fill="#eee"/><path d="M264.81,21.77v0a3.41,3.41,0,0,1,3.36-3.58c2.18,0,3.29,1.72,3.29,3.69,0,.15,0,.29,0,.45h-5a1.92,1.92,0,0,0,2,1.74,2.49,2.49,0,0,0,1.86-.82l.92.82a3.58,3.58,0,0,1-6.33-2.28Zm5.09-.5a1.79,1.79,0,0,0-1.75-1.81,1.86,1.86,0,0,0-1.78,1.81Z" transform="translate(-1 -10)" fill="#eee"/><path d="M273.21,19.67h-.87V18.35h.87v-.49a2.33,2.33,0,0,1,.56-1.7,2.07,2.07,0,0,1,1.55-.55,4.29,4.29,0,0,1,1.27.18v1.33a2.59,2.59,0,0,0-.92-.17c-.6,0-.91.32-.91,1v.38h1.82v1.3h-1.79v5.51h-1.58Z" transform="translate(-1 -10)" fill="#eee"/><path d="M277.27,21.77v0a3.41,3.41,0,0,1,3.36-3.58c2.18,0,3.28,1.72,3.28,3.69,0,.15,0,.29,0,.45h-5.05a1.93,1.93,0,0,0,2,1.74,2.51,2.51,0,0,0,1.86-.82l.92.82a3.58,3.58,0,0,1-6.33-2.28Zm5.08-.5a1.78,1.78,0,0,0-1.74-1.81,1.86,1.86,0,0,0-1.78,1.81Z" transform="translate(-1 -10)" fill="#eee"/><path d="M285.52,15.69h1.57v9.49h-1.57Z" transform="translate(-1 -10)" fill="#eee"/><path d="M289.09,15.69h1.57v9.49h-1.57Z" transform="translate(-1 -10)" fill="#eee"/><path d="M292.26,21.77v0a3.41,3.41,0,0,1,3.35-3.58c2.18,0,3.29,1.72,3.29,3.69a3.52,3.52,0,0,1,0,.45h-5a1.92,1.92,0,0,0,2,1.74,2.49,2.49,0,0,0,1.86-.82l.93.82a3.47,3.47,0,0,1-2.81,1.28A3.42,3.42,0,0,1,292.26,21.77Zm5.08-.5a1.78,1.78,0,0,0-1.74-1.81,1.86,1.86,0,0,0-1.79,1.81Z" transform="translate(-1 -10)" fill="#eee"/><path d="M300.44,18.31H302v1.55a2.43,2.43,0,0,1,2.43-1.68v1.67h-.09c-1.38,0-2.34.89-2.34,2.71v2.62h-1.58Z" transform="translate(-1 -10)" fill="#eee"/><path d="M155.36,35.65v0a4.61,4.61,0,0,1,4.7-4.71,4.76,4.76,0,0,1,3.56,1.42l-1,1.18A3.65,3.65,0,0,0,160,32.39a3.05,3.05,0,0,0-3,3.21v0a3.07,3.07,0,0,0,3,3.23,3.57,3.57,0,0,0,2.62-1.18l1,1A4.69,4.69,0,0,1,160,40.33,4.58,4.58,0,0,1,155.36,35.65Z" transform="translate(-1 -10)" fill="#eee"/><path d="M169.47,40.18v-.85a2.77,2.77,0,0,1-2.22,1,2.19,2.19,0,0,1-2.44-2.12v0c0-1.53,1.18-2.25,2.78-2.25a5.82,5.82,0,0,1,1.9.28v-.13c0-.95-.6-1.47-1.69-1.47a4.82,4.82,0,0,0-2,.43l-.43-1.26a5.9,5.9,0,0,1,2.62-.57c2,0,3,1.07,3,2.9v4.07Zm0-2.87a4.37,4.37,0,0,0-1.57-.28c-1,0-1.57.41-1.57,1.07v0c0,.65.58,1,1.32,1,1,0,1.82-.59,1.82-1.45Z" transform="translate(-1 -10)" fill="#eee"/><path d="M172.89,33.31h1.58v1.07a2.45,2.45,0,0,1,2.14-1.21,2.35,2.35,0,0,1,2.44,2.64v4.37h-1.57v-3.9c0-1.07-.53-1.68-1.47-1.68a1.52,1.52,0,0,0-1.54,1.7v3.88h-1.58Z" transform="translate(-1 -10)" fill="#eee"/><path d="M180.52,36.78v0a3.54,3.54,0,0,1,3.56-3.59,3.45,3.45,0,0,1,2.75,1.18l-1,1.06a2.3,2.3,0,0,0-1.78-.86,2.07,2.07,0,0,0-2,2.18v0A2.09,2.09,0,0,0,184.15,39a2.42,2.42,0,0,0,1.78-.86l.95.94a3.6,3.6,0,0,1-6.36-2.27Z" transform="translate(-1 -10)" fill="#eee"/><path d="M187.68,36.77v0A3.41,3.41,0,0,1,191,33.17c2.18,0,3.29,1.72,3.29,3.69,0,.15,0,.29,0,.45h-5a1.92,1.92,0,0,0,2,1.74,2.49,2.49,0,0,0,1.86-.82l.93.82a3.47,3.47,0,0,1-2.81,1.28A3.43,3.43,0,0,1,187.68,36.77Zm5.09-.5A1.78,1.78,0,0,0,191,34.46a1.86,1.86,0,0,0-1.79,1.81Z" transform="translate(-1 -10)" fill="#eee"/><path d="M195.87,33.31h1.58v1.55a2.43,2.43,0,0,1,2.43-1.68v1.67h-.09c-1.38,0-2.34.89-2.34,2.71v2.62h-1.58Z" transform="translate(-1 -10)" fill="#eee"/><path d="M204.52,31.08h1.6v9.1h-1.6Z" transform="translate(-1 -10)" fill="#eee"/><path d="M208.31,33.31h1.57v1.07A2.47,2.47,0,0,1,212,33.17a2.36,2.36,0,0,1,2.44,2.64v4.37H212.9v-3.9c0-1.07-.53-1.68-1.47-1.68a1.53,1.53,0,0,0-1.55,1.7v3.88h-1.57Z" transform="translate(-1 -10)" fill="#eee"/><path d="M215.77,39.28l.7-1.06a3.91,3.91,0,0,0,2.25.84c.67,0,1.06-.29,1.06-.74v0c0-.53-.72-.71-1.53-1-1-.28-2.15-.7-2.15-2v0a2.19,2.19,0,0,1,2.45-2.09,4.76,4.76,0,0,1,2.52.78l-.62,1.12a4,4,0,0,0-1.94-.66c-.61,0-1,.29-1,.69v0c0,.49.74.7,1.55,1,1,.31,2.13.77,2.13,2v0c0,1.44-1.12,2.16-2.55,2.16A4.79,4.79,0,0,1,215.77,39.28Z" transform="translate(-1 -10)" fill="#eee"/><path d="M223.08,38.28V34.67h-.87V33.31h.87V31.43h1.57v1.88h1.85v1.36h-1.85V38a.76.76,0,0,0,.85.86,2.16,2.16,0,0,0,1-.23v1.28a2.66,2.66,0,0,1-1.41.36A1.76,1.76,0,0,1,223.08,38.28Z" transform="translate(-1 -10)" fill="#eee"/><path d="M228,30.77h1.69v1.49H228Zm.07,2.54h1.57v6.87H228Z" transform="translate(-1 -10)" fill="#eee"/><path d="M231.82,38.28V34.67H231V33.31h.87V31.43h1.58v1.88h1.84v1.36H233.4V38a.75.75,0,0,0,.84.86,2.24,2.24,0,0,0,1-.23v1.28a2.69,2.69,0,0,1-1.42.36A1.76,1.76,0,0,1,231.82,38.28Z" transform="translate(-1 -10)" fill="#eee"/><path d="M236.62,37.68V33.31h1.57v3.9c0,1.07.53,1.68,1.47,1.68a1.53,1.53,0,0,0,1.55-1.7V33.31h1.57v6.87h-1.57V39.11a2.48,2.48,0,0,1-2.15,1.21A2.35,2.35,0,0,1,236.62,37.68Z" transform="translate(-1 -10)" fill="#eee"/><path d="M245,38.28V34.67h-.87V33.31H245V31.43h1.58v1.88h1.84v1.36h-1.84V38a.75.75,0,0,0,.84.86,2.21,2.21,0,0,0,1-.23v1.28a2.69,2.69,0,0,1-1.42.36A1.76,1.76,0,0,1,245,38.28Z" transform="translate(-1 -10)" fill="#eee"/><path d="M249.39,36.77v0a3.41,3.41,0,0,1,3.35-3.58c2.18,0,3.29,1.72,3.29,3.69a3.52,3.52,0,0,1,0,.45h-5a1.92,1.92,0,0,0,2,1.74,2.49,2.49,0,0,0,1.86-.82l.93.82a3.47,3.47,0,0,1-2.81,1.28A3.42,3.42,0,0,1,249.39,36.77Zm5.08-.5a1.78,1.78,0,0,0-1.74-1.81A1.86,1.86,0,0,0,251,36.27Z" transform="translate(-1 -10)" fill="#eee"/><path d="M137.09,43.08c0-.58-.45-.85-1-.85h-1.21V44.8h.62V44h.4l.56.81h.75l-.65-.92A.79.79,0,0,0,137.09,43.08Zm-1.09.4h-.54v-.71H136c.27,0,.45.13.45.36S136.29,43.48,136,43.48Z" transform="translate(-1 -10)" fill="#eee"/><path d="M135.86,40.94a2.63,2.63,0,1,0,2.63,2.63A2.63,2.63,0,0,0,135.86,40.94Zm2.19,2.61v0a2.19,2.19,0,1,1-4.38,0h0a2.2,2.2,0,0,1,2.19-2.22A2.17,2.17,0,0,1,138.05,43.55Z" transform="translate(-1 -10)" fill="#eee"/><path d="M155.2,73.34h1.71l2.77,4.3,2.76-4.3h1.71v9.1h-1.6V75.91l-2.87,4.29h-.06l-2.84-4.26v6.5H155.2Z" transform="translate(-1 -10)" fill="#eee"/><path d="M166,84.14l.54-1.17a1.85,1.85,0,0,0,.92.26c.44,0,.71-.2,1-.79l-2.86-6.87h1.68l2,5.1,1.78-5.1h1.64l-2.73,7.06c-.55,1.41-1.16,1.93-2.26,1.93A3.23,3.23,0,0,1,166,84.14Z" transform="translate(-1 -10)" fill="#eee"/><path d="M173.12,79v0a3.4,3.4,0,0,1,3.36-3.57c2.18,0,3.29,1.72,3.29,3.69,0,.14,0,.29,0,.44h-5a1.91,1.91,0,0,0,2,1.75,2.51,2.51,0,0,0,1.86-.82l.92.82A3.58,3.58,0,0,1,173.12,79Zm5.09-.51a1.79,1.79,0,0,0-1.75-1.8,1.86,1.86,0,0,0-1.78,1.8Z" transform="translate(-1 -10)" fill="#eee"/><path d="M181.37,73h1.57v9.49h-1.57Z" transform="translate(-1 -10)" fill="#eee"/><path d="M184.51,79v0a3.66,3.66,0,0,1,7.32,0v0a3.66,3.66,0,0,1-7.32,0Zm5.75,0v0a2.12,2.12,0,0,0-2.11-2.21A2.06,2.06,0,0,0,186.09,79v0a2.13,2.13,0,0,0,2.09,2.21A2.07,2.07,0,0,0,190.26,79Z" transform="translate(-1 -10)" fill="#eee"/><path d="M193.37,75.57h1.57v1A2.46,2.46,0,0,1,197,75.43a2.15,2.15,0,0,1,2,1.21,2.81,2.81,0,0,1,2.33-1.21,2.31,2.31,0,0,1,2.41,2.63v4.38h-1.58v-3.9c0-1.1-.5-1.68-1.39-1.68s-1.47.6-1.47,1.7v3.88H197.8V78.52c0-1.06-.52-1.66-1.39-1.66s-1.47.65-1.47,1.72v3.86h-1.57Z" transform="translate(-1 -10)" fill="#eee"/><path d="M209.9,82.44v-.85a2.79,2.79,0,0,1-2.23,1,2.19,2.19,0,0,1-2.44-2.12v0c0-1.52,1.18-2.24,2.78-2.24a5.78,5.78,0,0,1,1.9.28v-.13c0-1-.6-1.47-1.69-1.47a4.74,4.74,0,0,0-2,.43L205.83,76a5.83,5.83,0,0,1,2.61-.57c2,0,3,1.06,3,2.9v4.07Zm0-2.88a4.61,4.61,0,0,0-1.57-.27c-1,0-1.57.4-1.57,1.07v0c0,.65.58,1,1.32,1,1,0,1.82-.59,1.82-1.45Z" transform="translate(-1 -10)" fill="#eee"/><path d="M216.6,73.34h1.6v9.1h-1.6Z" transform="translate(-1 -10)" fill="#eee"/><path d="M220.14,75.57h1.57v1.07a2.47,2.47,0,0,1,2.14-1.21,2.36,2.36,0,0,1,2.45,2.64v4.37h-1.58v-3.9c0-1.07-.53-1.68-1.46-1.68a1.53,1.53,0,0,0-1.55,1.7v3.88h-1.57Z" transform="translate(-1 -10)" fill="#eee"/><path d="M227.59,81.54l.71-1.07a3.83,3.83,0,0,0,2.24.85c.68,0,1.07-.29,1.07-.74v0c0-.53-.73-.71-1.53-1-1-.29-2.15-.7-2.15-2v0a2.19,2.19,0,0,1,2.45-2.09,4.7,4.7,0,0,1,2.52.78l-.63,1.11a4,4,0,0,0-1.93-.65c-.61,0-1,.29-1,.69v0c0,.49.75.7,1.55,1,1,.31,2.13.77,2.13,2v0c0,1.44-1.11,2.16-2.54,2.16A4.82,4.82,0,0,1,227.59,81.54Z" transform="translate(-1 -10)" fill="#eee"/><path d="M234.91,80.54V76.92H234V75.57h.87V73.69h1.57v1.88h1.85v1.35h-1.85v3.37a.75.75,0,0,0,.84.86,2.17,2.17,0,0,0,1-.23V82.2a2.76,2.76,0,0,1-1.42.35A1.75,1.75,0,0,1,234.91,80.54Z" transform="translate(-1 -10)" fill="#eee"/><path d="M239.78,73h1.69v1.5h-1.69Zm.06,2.55h1.58v6.87h-1.58Z" transform="translate(-1 -10)" fill="#eee"/><path d="M243.65,80.54V76.92h-.87V75.57h.87V73.69h1.57v1.88h1.85v1.35h-1.85v3.37a.75.75,0,0,0,.85.86,2.16,2.16,0,0,0,1-.23V82.2a2.75,2.75,0,0,1-1.41.35A1.76,1.76,0,0,1,243.65,80.54Z" transform="translate(-1 -10)" fill="#eee"/><path d="M248.44,79.94V75.57H250v3.9c0,1.07.53,1.68,1.46,1.68a1.53,1.53,0,0,0,1.55-1.7V75.57h1.57v6.87H253V81.37a2.47,2.47,0,0,1-2.14,1.21A2.36,2.36,0,0,1,248.44,79.94Z" transform="translate(-1 -10)" fill="#eee"/><path d="M256.84,80.54V76.92H256V75.57h.87V73.69h1.57v1.88h1.85v1.35h-1.85v3.37a.76.76,0,0,0,.85.86,2.16,2.16,0,0,0,1-.23V82.2a2.75,2.75,0,0,1-1.41.35A1.76,1.76,0,0,1,256.84,80.54Z" transform="translate(-1 -10)" fill="#eee"/><path d="M261.21,79v0a3.4,3.4,0,0,1,3.36-3.57c2.18,0,3.28,1.72,3.28,3.69,0,.14,0,.29,0,.44h-5.05a1.93,1.93,0,0,0,2,1.75,2.51,2.51,0,0,0,1.86-.82l.92.82A3.58,3.58,0,0,1,261.21,79Zm5.09-.51a1.79,1.79,0,0,0-1.75-1.8,1.86,1.86,0,0,0-1.78,1.8Z" transform="translate(-1 -10)" fill="#eee"/><rect x="144.9" y="50.03" width="1" height="36.07" fill="#eee"/><path d="M31,82.06c0,3.77.1,7.28-2.67,10.31-2.35,2.56-6,3.73-9.47,3.83H15.44C12,96.1,8.32,95,6,92.43,3.2,89.4,3.3,85.9,3.3,82.13v-14C3.3,65.81,3.67,62,1,61v-.15h9.94V61c-2.62,1-2.31,4.82-2.31,7.17v14c0,7,2.94,10.2,8.32,10.2a9.26,9.26,0,0,0,7.64-3.67c1.15-1.56,1.1-2.87,1.1-4.75V68.16c0-2.35.31-6.17-2.3-7.17v-.15h9.94l.05.15C30.71,62,31,65.81,31,68.21L31,82.06Z" transform="translate(-1 -10)" fill="#eee"/><path d="M46.61,65.29l-6.53,17-2.73,7.38c-1.1,2.93-1.46,4.45,1,5.39v.16H28.78V95.1c3-1.52,3.92-4.44,5.07-7.43l8.73-21.81c.74-1.88,1.73-4.08-.78-4.87v-.15h8.26L60.94,87.67c1.2,3,2.15,5.91,5.13,7.43v.16H55.34V95.1c2.57-1.15,2.15-1.72.74-5.39l-2.83-7.38-6.64-17Z" transform="translate(-1 -10)" fill="#eee"/><path d="M96.36,64.13a9.09,9.09,0,0,0,.78-3.24v0h9V61c-1.26.37-1.62,1.89-1.62,3.09L108,89.77c.31,2.46.58,3.87,2.67,5.33v.16h-10.1V95.1c1.84-.57,2.15-2.14,2.15-3.92L99.76,66,88,95.94c-2.62-2-3.35-3.4-4.61-6.33L73.5,66l-3,22.49c-.42,3.19-.79,5.49,1.67,6.59v.16H63.66V95.1c2.2-1.93,2.51-4.5,2.93-7.32l3-21.92c.21-1.46.79-3.55-1.62-4.87v-.15h9.16v0a6.25,6.25,0,0,0,.73,2.36l9.83,23.06,8.69-22.18Z" transform="translate(-1 -10)" fill="#eee"/><path d="M131.45,67.07a11.87,11.87,0,0,0-8.21-3.3c-3,0-6.75,1.15-6.75,4.76,0,7.16,18,7.06,18,16.74,0,5.59-5.85,10.83-14,10.83a27,27,0,0,1-9.36-1.57L109.59,88A18.09,18.09,0,0,0,121,92.33c3,0,7.48-1.78,7.48-5.44,0-8.16-18-6.7-18-17.79,0-6.58,6.76-9.1,13.14-9.1a26.44,26.44,0,0,1,7.79,1.15v5.92Z" transform="translate(-1 -10)" fill="#eee"/><path d="M46.69,89.2a4.38,4.38,0,1,0-4.38-4.39,4.39,4.39,0,0,0,4.38,4.39Z" transform="translate(-1 -10)" fill="#eee"/><path d="M137.07,93c0-.58-.44-.85-1-.85h-1.21v2.57h.63v-.81h.4l.55.81h.76l-.66-.92A.81.81,0,0,0,137.07,93Zm-1.08.4h-.54v-.71H136c.27,0,.44.13.44.35S136.28,93.43,136,93.43Z" transform="translate(-1 -10)" fill="#eee"/><path d="M135.85,90.89a2.63,2.63,0,1,0,2.63,2.62A2.62,2.62,0,0,0,135.85,90.89ZM138,93.5h0a2.2,2.2,0,0,1-2.19,2.22,2.17,2.17,0,0,1-2.19-2.2v0a2.19,2.19,0,1,1,4.38,0Z" transform="translate(-1 -10)" fill="#eee"/><path d="M31,132.14c0,3.77.1,7.28-2.67,10.31-2.35,2.57-6,3.73-9.47,3.83H15.44c-3.45-.1-7.12-1.2-9.47-3.77-2.77-3-2.67-6.53-2.67-10.3v-14c0-2.35.37-6.17-2.3-7.16v-.16h9.94v.16c-2.62,1-2.31,4.81-2.31,7.16v14c0,7,2.94,10.2,8.32,10.2a9.25,9.25,0,0,0,7.64-3.66c1.15-1.57,1.1-2.88,1.1-4.76V118.24c0-2.35.31-6.17-2.3-7.16v-.16h9.94l.05.16c-2.67,1-2.36,4.81-2.36,7.22L31,132.14Z" transform="translate(-1 -10)" fill="#eee"/><path d="M46.61,115.37l-6.53,17-2.73,7.38c-1.1,2.92-1.46,4.44,1,5.38v.16H28.78v-.16c3-1.51,3.92-4.44,5.07-7.43l8.73-21.81c.74-1.88,1.73-4.08-.78-4.86v-.16h8.26l10.88,26.83c1.2,3,2.15,5.92,5.13,7.43v.16H55.34v-.16c2.57-1.15,2.15-1.72.74-5.38l-2.83-7.38-6.64-17Z" transform="translate(-1 -10)" fill="#eee"/><path d="M96.36,114.21a9.09,9.09,0,0,0,.78-3.24v0h9v.16c-1.26.36-1.62,1.88-1.62,3.08L108,139.85c.31,2.46.58,3.87,2.67,5.33v.16h-10.1v-.16c1.84-.57,2.15-2.14,2.15-3.92l-3-25.21L88,146c-2.62-2-3.35-3.4-4.61-6.33L73.5,116.1l-3,22.49c-.42,3.19-.79,5.49,1.67,6.59v.16H63.66v-.16c2.2-1.93,2.51-4.5,2.93-7.32l3-21.92c.21-1.46.79-3.55-1.62-4.86v-.16h9.16v0a6.25,6.25,0,0,0,.73,2.36l9.83,23.07,8.69-22.19Z" transform="translate(-1 -10)" fill="#eee"/><path d="M131.45,117.15a11.87,11.87,0,0,0-8.21-3.3c-3,0-6.75,1.15-6.75,4.76,0,7.17,18,7.06,18,16.74,0,5.6-5.85,10.83-14,10.83a27,27,0,0,1-9.36-1.57l-1.52-6.54A18.09,18.09,0,0,0,121,142.41c3,0,7.48-1.78,7.48-5.44,0-8.16-18-6.7-18-17.79,0-6.58,6.76-9.1,13.14-9.1a26.44,26.44,0,0,1,7.79,1.15v5.92Z" transform="translate(-1 -10)" fill="#eee"/><path d="M46.69,139.28a4.38,4.38,0,1,0-4.38-4.38,4.39,4.39,0,0,0,4.38,4.38Z" transform="translate(-1 -10)" fill="#eee"/><rect x="144.9" y="100" width="1" height="36.07" fill="#eee"/><path d="M155.18,116.08h3.39a4.54,4.54,0,0,1,4.84,4.52v0a4.56,4.56,0,0,1-4.84,4.55h-3.39Zm3.39,7.64a3,3,0,0,0,3.16-3.07v0a3,3,0,0,0-3.16-3.1h-1.79v6.19Z" transform="translate(-1 -10)" fill="#eee"/><path d="M164.72,121.78v0a3.66,3.66,0,0,1,7.32,0v0a3.66,3.66,0,0,1-7.32,0Zm5.74,0v0a2.12,2.12,0,0,0-2.1-2.21,2.06,2.06,0,0,0-2.07,2.18v0a2.12,2.12,0,0,0,2.09,2.21A2.07,2.07,0,0,0,170.46,121.78Z" transform="translate(-1 -10)" fill="#eee"/><path d="M173.57,118.31h1.57v1.07a2.48,2.48,0,0,1,2.15-1.21,2.35,2.35,0,0,1,2.44,2.64v4.37h-1.57v-3.9c0-1.07-.53-1.68-1.47-1.68a1.53,1.53,0,0,0-1.55,1.7v3.88h-1.57Z" transform="translate(-1 -10)" fill="#eee"/><path d="M185.8,125.18v-.85a2.79,2.79,0,0,1-2.23,1,2.19,2.19,0,0,1-2.44-2.12v0c0-1.53,1.18-2.25,2.78-2.25a5.78,5.78,0,0,1,1.9.28v-.13c0-1-.6-1.47-1.69-1.47a4.74,4.74,0,0,0-2,.43l-.43-1.26a5.83,5.83,0,0,1,2.61-.57c2,0,3,1.07,3,2.9v4.07Zm0-2.87a4.47,4.47,0,0,0-1.58-.28c-1,0-1.57.41-1.57,1.07v0c0,.65.58,1,1.33,1,1,0,1.82-.59,1.82-1.45Z" transform="translate(-1 -10)" fill="#eee"/><path d="M189.27,115.69h1.57v9.49h-1.57Z" transform="translate(-1 -10)" fill="#eee"/><path d="M192.46,121.76v0a3.28,3.28,0,0,1,3.19-3.56,2.84,2.84,0,0,1,2.34,1.21v-3.69h1.57v9.49H198V124a2.74,2.74,0,0,1-2.34,1.29A3.3,3.3,0,0,1,192.46,121.76Zm5.56,0v0a2.06,2.06,0,0,0-2-2.19,2,2,0,0,0-2,2.19v0a2,2,0,0,0,2,2.2A2.07,2.07,0,0,0,198,121.76Z" transform="translate(-1 -10)" fill="#eee"/><path d="M204,116.08h1.73l2.17,6.74,2.23-6.77h1.36l2.23,6.77,2.17-6.74h1.68l-3.17,9.16H213l-2.24-6.54-2.23,6.54h-1.38Z" transform="translate(-1 -10)" fill="#eee"/><path d="M217.35,123.4h1.72v1.78h-1.72Z" transform="translate(-1 -10)" fill="#eee"/><path d="M224.13,116.08h4.06a3.66,3.66,0,0,1,2.62.91,2.75,2.75,0,0,1,.76,2v0a2.73,2.73,0,0,1-2.17,2.75l2.45,3.45H230L227.73,122h-2v3.17h-1.6Zm3.94,4.51c1.14,0,1.87-.6,1.87-1.52v0c0-1-.7-1.51-1.88-1.51h-2.33v3.06Z" transform="translate(-1 -10)" fill="#eee"/><path d="M232.84,121.77v0a3.41,3.41,0,0,1,3.35-3.58c2.19,0,3.29,1.72,3.29,3.69,0,.15,0,.29,0,.45h-5.05a1.92,1.92,0,0,0,2,1.74,2.52,2.52,0,0,0,1.86-.82l.92.82a3.47,3.47,0,0,1-2.81,1.28A3.42,3.42,0,0,1,232.84,121.77Zm5.08-.5a1.78,1.78,0,0,0-1.74-1.81,1.86,1.86,0,0,0-1.78,1.81Z" transform="translate(-1 -10)" fill="#eee"/><path d="M240.43,126.88l.53-1.17a1.92,1.92,0,0,0,.93.26c.44,0,.71-.19,1-.79L240,118.31h1.68l1.95,5.1,1.78-5.1h1.64l-2.73,7.06c-.55,1.41-1.16,1.93-2.27,1.93A3.19,3.19,0,0,1,240.43,126.88Z" transform="translate(-1 -10)" fill="#eee"/><path d="M248.26,118.31h1.58v1.07a2.47,2.47,0,0,1,2.14-1.21,2.36,2.36,0,0,1,2.45,2.64v4.37h-1.58v-3.9c0-1.07-.53-1.68-1.47-1.68a1.52,1.52,0,0,0-1.54,1.7v3.88h-1.58Z" transform="translate(-1 -10)" fill="#eee"/><path d="M255.89,121.78v0a3.66,3.66,0,0,1,7.32,0v0a3.66,3.66,0,0,1-7.32,0Zm5.75,0v0a2.12,2.12,0,0,0-2.11-2.21,2.06,2.06,0,0,0-2.07,2.18v0a2.13,2.13,0,0,0,2.1,2.21A2.07,2.07,0,0,0,261.64,121.78Z" transform="translate(-1 -10)" fill="#eee"/><path d="M264.81,115.69h1.57v9.49h-1.57Z" transform="translate(-1 -10)" fill="#eee"/><path d="M268,121.76v0a3.28,3.28,0,0,1,3.19-3.56,2.83,2.83,0,0,1,2.34,1.21v-3.69h1.57v9.49h-1.57V124a2.74,2.74,0,0,1-2.34,1.29A3.3,3.3,0,0,1,268,121.76Zm5.56,0v0a2.06,2.06,0,0,0-2-2.19,2,2,0,0,0-2,2.19v0a2,2,0,0,0,2,2.2A2.07,2.07,0,0,0,273.56,121.76Z" transform="translate(-1 -10)" fill="#eee"/><path d="M276.49,124.28l.7-1.06a3.94,3.94,0,0,0,2.25.84c.68,0,1.07-.29,1.07-.74v0c0-.53-.73-.71-1.53-1-1-.28-2.15-.7-2.15-2v0a2.19,2.19,0,0,1,2.44-2.09,4.79,4.79,0,0,1,2.53.78l-.63,1.12a3.91,3.91,0,0,0-1.93-.66c-.61,0-1,.29-1,.69v0c0,.49.75.7,1.55,1,1,.31,2.13.77,2.13,2v0c0,1.44-1.11,2.16-2.55,2.16A4.81,4.81,0,0,1,276.49,124.28Z" transform="translate(-1 -10)" fill="#eee"/><path d="M155.18,131.08h1.6v9.1h-1.6Z" transform="translate(-1 -10)" fill="#eee"/><path d="M159,133.31h1.57v1.07a2.47,2.47,0,0,1,2.14-1.21,2.36,2.36,0,0,1,2.45,2.64v4.37h-1.58v-3.9c0-1.07-.53-1.68-1.46-1.68a1.53,1.53,0,0,0-1.55,1.7v3.88H159Z" transform="translate(-1 -10)" fill="#eee"/><path d="M166.43,139.28l.71-1.06a3.89,3.89,0,0,0,2.25.84c.67,0,1.06-.29,1.06-.74v0c0-.53-.73-.71-1.53-1-1-.28-2.15-.7-2.15-2v0a2.19,2.19,0,0,1,2.45-2.09,4.79,4.79,0,0,1,2.52.78l-.63,1.12a3.91,3.91,0,0,0-1.93-.66c-.61,0-1,.29-1,.69v0c0,.49.75.7,1.55,1,1,.31,2.13.77,2.13,2v0c0,1.44-1.11,2.16-2.54,2.16A4.82,4.82,0,0,1,166.43,139.28Z" transform="translate(-1 -10)" fill="#eee"/><path d="M173.75,138.28v-3.61h-.88v-1.36h.88v-1.88h1.57v1.88h1.85v1.36h-1.85V138a.75.75,0,0,0,.84.86,2.17,2.17,0,0,0,1-.23v1.28a2.67,2.67,0,0,1-1.42.36A1.76,1.76,0,0,1,173.75,138.28Z" transform="translate(-1 -10)" fill="#eee"/><path d="M178.62,130.77h1.69v1.49h-1.69Zm.06,2.54h1.58v6.87h-1.58Z" transform="translate(-1 -10)" fill="#eee"/><path d="M182.49,138.28v-3.61h-.87v-1.36h.87v-1.88h1.57v1.88h1.85v1.36h-1.85V138a.75.75,0,0,0,.85.86,2.16,2.16,0,0,0,1-.23v1.28a2.66,2.66,0,0,1-1.41.36A1.76,1.76,0,0,1,182.49,138.28Z" transform="translate(-1 -10)" fill="#eee"/><path d="M187.28,137.68v-4.37h1.58v3.9c0,1.07.53,1.68,1.46,1.68a1.53,1.53,0,0,0,1.55-1.7v-3.88h1.57v6.87h-1.57v-1.07a2.47,2.47,0,0,1-2.14,1.21A2.36,2.36,0,0,1,187.28,137.68Z" transform="translate(-1 -10)" fill="#eee"/><path d="M195.68,138.28v-3.61h-.87v-1.36h.87v-1.88h1.57v1.88h1.85v1.36h-1.85V138a.76.76,0,0,0,.85.86,2.16,2.16,0,0,0,1-.23v1.28a2.66,2.66,0,0,1-1.41.36A1.76,1.76,0,0,1,195.68,138.28Z" transform="translate(-1 -10)" fill="#eee"/><path d="M200.05,136.77v0a3.41,3.41,0,0,1,3.36-3.58c2.18,0,3.29,1.72,3.29,3.69,0,.15,0,.29,0,.45h-5a1.91,1.91,0,0,0,2,1.74,2.51,2.51,0,0,0,1.86-.82l.92.82a3.58,3.58,0,0,1-6.33-2.28Zm5.09-.5a1.79,1.79,0,0,0-1.75-1.81,1.86,1.86,0,0,0-1.78,1.81Z" transform="translate(-1 -10)" fill="#eee"/><path d="M210.91,136.78v0a3.66,3.66,0,0,1,7.32,0v0a3.58,3.58,0,0,1-3.68,3.57A3.55,3.55,0,0,1,210.91,136.78Zm5.74,0v0a2.12,2.12,0,0,0-2.1-2.21,2.06,2.06,0,0,0-2.07,2.18v0a2.12,2.12,0,0,0,2.09,2.21A2.07,2.07,0,0,0,216.65,136.78Z" transform="translate(-1 -10)" fill="#eee"/><path d="M219.76,133.31h1.57v1.07a2.47,2.47,0,0,1,2.15-1.21,2.36,2.36,0,0,1,2.44,2.64v4.37h-1.57v-3.9c0-1.07-.53-1.68-1.47-1.68a1.53,1.53,0,0,0-1.55,1.7v3.88h-1.57Z" transform="translate(-1 -10)" fill="#eee"/><path d="M234.23,131h1.48l4,9.17H238l-.92-2.2h-4.3l-.94,2.2h-1.64Zm2.29,5.55-1.58-3.64-1.56,3.64Z" transform="translate(-1 -10)" fill="#eee"/><path d="M240.41,141.47l.59-1.19a4.43,4.43,0,0,0,2.44.73,1.92,1.92,0,0,0,2.17-2.11v-.53a2.86,2.86,0,0,1-2.41,1.26,3.08,3.08,0,0,1-3.12-3.21v0a3.1,3.1,0,0,1,3.12-3.23,3,3,0,0,1,2.4,1.17v-1h1.58v5.46a3.48,3.48,0,0,1-.88,2.59,3.86,3.86,0,0,1-2.82.92A6,6,0,0,1,240.41,141.47Zm5.22-5.05v0a1.92,1.92,0,0,0-2-1.9,1.85,1.85,0,0,0-2,1.88v0a1.87,1.87,0,0,0,2,1.9A1.93,1.93,0,0,0,245.63,136.42Z" transform="translate(-1 -10)" fill="#eee"/><path d="M249.08,130.77h1.69v1.49h-1.69Zm.07,2.54h1.57v6.87h-1.57Z" transform="translate(-1 -10)" fill="#eee"/><path d="M252.68,133.31h1.57v1.07a2.47,2.47,0,0,1,2.15-1.21,2.36,2.36,0,0,1,2.44,2.64v4.37h-1.57v-3.9c0-1.07-.54-1.68-1.47-1.68a1.53,1.53,0,0,0-1.55,1.7v3.88h-1.57Z" transform="translate(-1 -10)" fill="#eee"/><path d="M260.66,141.47l.58-1.19a4.44,4.44,0,0,0,2.45.73,1.92,1.92,0,0,0,2.17-2.11v-.53a2.88,2.88,0,0,1-2.42,1.26,3.08,3.08,0,0,1-3.12-3.21v0a3.1,3.1,0,0,1,3.12-3.23,3,3,0,0,1,2.41,1.17v-1h1.57v5.46a3.52,3.52,0,0,1-.87,2.59,3.9,3.9,0,0,1-2.82.92A5.94,5.94,0,0,1,260.66,141.47Zm5.21-5.05v0a1.91,1.91,0,0,0-2-1.9,1.85,1.85,0,0,0-1.95,1.88v0a1.87,1.87,0,0,0,1.95,1.9A1.92,1.92,0,0,0,265.87,136.42Z" transform="translate(-1 -10)" fill="#eee"/><path d="M137,143.06c0-.58-.44-.85-1-.85h-1.21v2.57h.63V144h.39l.56.81h.75l-.65-.92A.79.79,0,0,0,137,143.06Zm-1.08.4h-.54v-.71H136c.27,0,.44.13.44.36S136.23,143.46,136,143.46Z" transform="translate(-1 -10)" fill="#eee"/><path d="M135.8,140.92a2.63,2.63,0,1,0,2.63,2.63A2.63,2.63,0,0,0,135.8,140.92Zm2.19,2.61v0a2.19,2.19,0,1,1-4.38,0h0a2.2,2.2,0,0,1,2.19-2.22A2.17,2.17,0,0,1,138,143.53Z" transform="translate(-1 -10)" fill="#eee"/><path d="M31,182.14c0,3.77.1,7.28-2.67,10.31-2.35,2.57-6,3.73-9.47,3.83H15.44c-3.45-.1-7.12-1.2-9.47-3.77-2.77-3-2.67-6.53-2.67-10.3v-14c0-2.35.37-6.17-2.3-7.16v-.16h9.94v.16c-2.62,1-2.31,4.81-2.31,7.16v14c0,7,2.94,10.2,8.32,10.2a9.25,9.25,0,0,0,7.64-3.66c1.15-1.57,1.1-2.88,1.1-4.76V168.24c0-2.35.31-6.17-2.3-7.16v-.16h9.94l.05.16c-2.67,1-2.36,4.81-2.36,7.22L31,182.14Z" transform="translate(-1 -10)" fill="#eee"/><path d="M46.61,165.37l-6.53,17-2.73,7.38c-1.1,2.92-1.46,4.44,1,5.38v.16H28.78v-.16c3-1.51,3.92-4.44,5.07-7.43l8.73-21.81c.74-1.88,1.73-4.08-.78-4.86v-.16h8.26l10.88,26.83c1.2,3,2.15,5.92,5.13,7.43v.16H55.34v-.16c2.57-1.15,2.15-1.72.74-5.38l-2.83-7.38-6.64-17Z" transform="translate(-1 -10)" fill="#eee"/><path d="M96.36,164.21a9.09,9.09,0,0,0,.78-3.24v-.05h9v.16c-1.26.36-1.62,1.88-1.62,3.08L108,189.85c.31,2.46.58,3.87,2.67,5.33v.16h-10.1v-.16c1.84-.57,2.15-2.14,2.15-3.92l-3-25.21L88,196c-2.62-2-3.35-3.4-4.61-6.33L73.5,166.1l-3,22.49c-.42,3.19-.79,5.49,1.67,6.59v.16H63.66v-.16c2.2-1.93,2.51-4.5,2.93-7.32l3-21.92c.21-1.46.79-3.55-1.62-4.86v-.16h9.16V161a6.25,6.25,0,0,0,.73,2.36l9.83,23.07,8.69-22.19Z" transform="translate(-1 -10)" fill="#eee"/><path d="M131.45,167.15a11.87,11.87,0,0,0-8.21-3.3c-3,0-6.75,1.15-6.75,4.76,0,7.17,18,7.06,18,16.74,0,5.6-5.85,10.83-14,10.83a27,27,0,0,1-9.36-1.57l-1.52-6.54A18.09,18.09,0,0,0,121,192.41c3,0,7.48-1.78,7.48-5.44,0-8.16-18-6.7-18-17.79,0-6.58,6.76-9.1,13.14-9.1a26.44,26.44,0,0,1,7.79,1.15v5.92Z" transform="translate(-1 -10)" fill="#eee"/><path d="M46.69,189.28a4.38,4.38,0,1,0-4.38-4.38,4.39,4.39,0,0,0,4.38,4.38Z" transform="translate(-1 -10)" fill="#eee"/><rect x="144.9" y="150" width="1" height="36.07" fill="#eee"/><path d="M157.41,167.56h-2.88v-1.48h7.38v1.48H159v7.62h-1.61Z" transform="translate(-1 -10)" fill="#eee"/><path d="M162.32,168.31h1.57v1.55a2.43,2.43,0,0,1,2.43-1.68v1.67h-.09c-1.38,0-2.34.89-2.34,2.72v2.61h-1.57Z" transform="translate(-1 -10)" fill="#eee"/><path d="M171.67,175.18v-.85a2.79,2.79,0,0,1-2.23,1A2.19,2.19,0,0,1,167,173.2v0c0-1.53,1.18-2.25,2.78-2.25a5.78,5.78,0,0,1,1.9.28v-.13c0-1-.6-1.47-1.69-1.47a4.74,4.74,0,0,0-2,.43l-.43-1.26a5.83,5.83,0,0,1,2.61-.57c2,0,3,1.07,3,2.9v4.07Zm0-2.87a4.47,4.47,0,0,0-1.58-.28c-1,0-1.57.41-1.57,1.07v0c0,.65.58,1,1.33,1,1,0,1.82-.59,1.82-1.45Z" transform="translate(-1 -10)" fill="#eee"/><path d="M175.09,168.31h1.57v1.07a2.47,2.47,0,0,1,2.14-1.21,2.36,2.36,0,0,1,2.45,2.64v4.37h-1.57v-3.9c0-1.07-.54-1.68-1.47-1.68a1.53,1.53,0,0,0-1.55,1.7v3.88h-1.57Z" transform="translate(-1 -10)" fill="#eee"/><path d="M182.54,174.28l.71-1.06a3.89,3.89,0,0,0,2.25.84c.67,0,1.06-.29,1.06-.74v0c0-.53-.73-.71-1.53-1-1-.28-2.15-.7-2.15-2v0a2.19,2.19,0,0,1,2.45-2.09,4.79,4.79,0,0,1,2.52.78l-.62,1.12a4,4,0,0,0-1.94-.66c-.61,0-1,.29-1,.69v0c0,.49.74.7,1.54,1,1,.31,2.13.77,2.13,2v0c0,1.44-1.11,2.16-2.54,2.16A4.82,4.82,0,0,1,182.54,174.28Z" transform="translate(-1 -10)" fill="#eee"/><path d="M189.62,165.69h1.57v9.49h-1.57Z" transform="translate(-1 -10)" fill="#eee"/><path d="M197.36,175.18v-.85a2.77,2.77,0,0,1-2.22,1,2.2,2.2,0,0,1-2.45-2.12v0c0-1.53,1.19-2.25,2.78-2.25a5.73,5.73,0,0,1,1.9.28v-.13c0-1-.6-1.47-1.69-1.47a4.78,4.78,0,0,0-2,.43l-.43-1.26a5.86,5.86,0,0,1,2.61-.57c2,0,3,1.07,3,2.9v4.07Zm0-2.87a4.37,4.37,0,0,0-1.57-.28c-1,0-1.58.41-1.58,1.07v0c0,.65.59,1,1.33,1,1,0,1.82-.59,1.82-1.45Z" transform="translate(-1 -10)" fill="#eee"/><path d="M201,173.28v-3.61h-.87v-1.36H201v-1.88h1.58v1.88h1.84v1.36h-1.84V173a.75.75,0,0,0,.84.86,2.24,2.24,0,0,0,1-.23v1.28a2.69,2.69,0,0,1-1.42.36A1.76,1.76,0,0,1,201,173.28Z" transform="translate(-1 -10)" fill="#eee"/><path d="M205.82,165.77h1.69v1.49h-1.69Zm.07,2.54h1.57v6.87h-1.57Z" transform="translate(-1 -10)" fill="#eee"/><path d="M209,171.78v0a3.66,3.66,0,0,1,7.32,0v0a3.59,3.59,0,0,1-3.68,3.57A3.55,3.55,0,0,1,209,171.78Zm5.74,0v0a2.12,2.12,0,0,0-2.1-2.21,2.06,2.06,0,0,0-2.07,2.18v0a2.12,2.12,0,0,0,2.09,2.21A2.07,2.07,0,0,0,214.76,171.78Z" transform="translate(-1 -10)" fill="#eee"/><path d="M217.87,168.31h1.57v1.07a2.47,2.47,0,0,1,2.15-1.21,2.36,2.36,0,0,1,2.44,2.64v4.37h-1.57v-3.9c0-1.07-.54-1.68-1.47-1.68a1.53,1.53,0,0,0-1.55,1.7v3.88h-1.57Z" transform="translate(-1 -10)" fill="#eee"/><path d="M230.09,175.18v-.85a2.75,2.75,0,0,1-2.22,1,2.19,2.19,0,0,1-2.44-2.12v0c0-1.53,1.18-2.25,2.78-2.25a5.82,5.82,0,0,1,1.9.28v-.13c0-1-.6-1.47-1.69-1.47a4.82,4.82,0,0,0-2,.43l-.43-1.26a5.9,5.9,0,0,1,2.62-.57c2,0,3,1.07,3,2.9v4.07Zm0-2.87a4.37,4.37,0,0,0-1.57-.28c-1,0-1.57.41-1.57,1.07v0c0,.65.58,1,1.32,1,1,0,1.82-.59,1.82-1.45Z" transform="translate(-1 -10)" fill="#eee"/><path d="M233.56,165.69h1.58v9.49h-1.58Z" transform="translate(-1 -10)" fill="#eee"/><path d="M155.18,181.08h4a3.68,3.68,0,0,1,2.63.91,2.74,2.74,0,0,1,.75,2v0a2.72,2.72,0,0,1-2.17,2.75l2.46,3.45H161L158.78,187h-2v3.17h-1.6Zm3.94,4.51c1.14,0,1.87-.6,1.87-1.52v0c0-1-.7-1.51-1.89-1.51h-2.32v3.06Z" transform="translate(-1 -10)" fill="#eee"/><path d="M163.62,186.77v0a3.41,3.41,0,0,1,3.36-3.58c2.18,0,3.29,1.72,3.29,3.69,0,.15,0,.29,0,.45h-5a1.92,1.92,0,0,0,2,1.74,2.49,2.49,0,0,0,1.86-.82l.93.82a3.47,3.47,0,0,1-2.81,1.28A3.43,3.43,0,0,1,163.62,186.77Zm5.09-.5a1.79,1.79,0,0,0-1.75-1.81,1.86,1.86,0,0,0-1.78,1.81Z" transform="translate(-1 -10)" fill="#eee"/><path d="M171.21,189.28l.7-1.06a3.91,3.91,0,0,0,2.25.84c.68,0,1.07-.29,1.07-.74v0c0-.53-.73-.71-1.54-1-1-.28-2.14-.7-2.14-2v0A2.19,2.19,0,0,1,174,183.2a4.73,4.73,0,0,1,2.52.78l-.62,1.12a3.91,3.91,0,0,0-1.94-.66c-.61,0-1,.29-1,.69v0c0,.49.74.7,1.55,1,1,.31,2.13.77,2.13,2v0c0,1.44-1.12,2.16-2.55,2.16A4.81,4.81,0,0,1,171.21,189.28Z" transform="translate(-1 -10)" fill="#eee"/><path d="M177.78,186.77v0a3.41,3.41,0,0,1,3.35-3.58c2.19,0,3.29,1.72,3.29,3.69,0,.15,0,.29,0,.45h-5.05a1.93,1.93,0,0,0,2,1.74,2.51,2.51,0,0,0,1.86-.82l.92.82a3.47,3.47,0,0,1-2.81,1.28A3.42,3.42,0,0,1,177.78,186.77Zm5.08-.5a1.78,1.78,0,0,0-1.74-1.81,1.86,1.86,0,0,0-1.78,1.81Z" transform="translate(-1 -10)" fill="#eee"/><path d="M190.13,190.18v-.85a2.77,2.77,0,0,1-2.22,1,2.2,2.2,0,0,1-2.45-2.12v0c0-1.53,1.19-2.25,2.79-2.25a5.71,5.71,0,0,1,1.89.28v-.13c0-1-.59-1.47-1.69-1.47a4.81,4.81,0,0,0-2,.43l-.43-1.26a5.9,5.9,0,0,1,2.62-.57c2,0,3,1.07,3,2.9v4.07Zm0-2.87a4.37,4.37,0,0,0-1.57-.28c-1,0-1.58.41-1.58,1.07v0c0,.65.59,1,1.33,1,1,0,1.82-.59,1.82-1.45Z" transform="translate(-1 -10)" fill="#eee"/><path d="M193.55,183.31h1.57v1.55a2.45,2.45,0,0,1,2.44-1.68v1.67h-.1c-1.37,0-2.34.89-2.34,2.72v2.61h-1.57Z" transform="translate(-1 -10)" fill="#eee"/><path d="M198.36,186.78v0a3.54,3.54,0,0,1,3.56-3.59,3.43,3.43,0,0,1,2.74,1.18l-1,1.06a2.3,2.3,0,0,0-1.78-.86,2.06,2.06,0,0,0-2,2.18v0a2.09,2.09,0,0,0,2,2.21,2.4,2.4,0,0,0,1.78-.86l1,.94a3.6,3.6,0,0,1-6.35-2.27Z" transform="translate(-1 -10)" fill="#eee"/><path d="M206,180.69h1.57v3.69a2.48,2.48,0,0,1,2.15-1.21,2.35,2.35,0,0,1,2.44,2.64v4.37h-1.57v-3.9c0-1.07-.53-1.68-1.47-1.68a1.53,1.53,0,0,0-1.55,1.7v3.88H206Z" transform="translate(-1 -10)" fill="#eee"/><path d="M217.37,181.08H219v9.1h-1.6Z" transform="translate(-1 -10)" fill="#eee"/><path d="M220.9,183.31h1.57v1.07a2.47,2.47,0,0,1,2.15-1.21,2.36,2.36,0,0,1,2.44,2.64v4.37h-1.57v-3.9c0-1.07-.54-1.68-1.47-1.68a1.53,1.53,0,0,0-1.55,1.7v3.88H220.9Z" transform="translate(-1 -10)" fill="#eee"/><path d="M228.36,189.28l.7-1.06a3.91,3.91,0,0,0,2.25.84c.67,0,1.06-.29,1.06-.74v0c0-.53-.72-.71-1.53-1-1-.28-2.15-.7-2.15-2v0a2.19,2.19,0,0,1,2.45-2.09,4.76,4.76,0,0,1,2.52.78L233,185.1a4,4,0,0,0-1.94-.66c-.61,0-1,.29-1,.69v0c0,.49.74.7,1.54,1,1,.31,2.14.77,2.14,2v0c0,1.44-1.12,2.16-2.55,2.16A4.79,4.79,0,0,1,228.36,189.28Z" transform="translate(-1 -10)" fill="#eee"/><path d="M235.67,188.28v-3.61h-.87v-1.36h.87v-1.88h1.57v1.88h1.85v1.36h-1.85V188a.75.75,0,0,0,.85.86,2.16,2.16,0,0,0,1-.23v1.28a2.67,2.67,0,0,1-1.42.36A1.76,1.76,0,0,1,235.67,188.28Z" transform="translate(-1 -10)" fill="#eee"/><path d="M240.54,180.77h1.69v1.49h-1.69Zm.06,2.54h1.58v6.87H240.6Z" transform="translate(-1 -10)" fill="#eee"/><path d="M244.41,188.28v-3.61h-.87v-1.36h.87v-1.88H246v1.88h1.84v1.36H246V188a.75.75,0,0,0,.84.86,2.24,2.24,0,0,0,1-.23v1.28a2.69,2.69,0,0,1-1.42.36A1.76,1.76,0,0,1,244.41,188.28Z" transform="translate(-1 -10)" fill="#eee"/><path d="M249.21,187.68v-4.37h1.57v3.9c0,1.07.53,1.68,1.47,1.68a1.52,1.52,0,0,0,1.54-1.7v-3.88h1.58v6.87h-1.58v-1.07a2.45,2.45,0,0,1-2.14,1.21A2.35,2.35,0,0,1,249.21,187.68Z" transform="translate(-1 -10)" fill="#eee"/><path d="M257.6,188.28v-3.61h-.87v-1.36h.87v-1.88h1.58v1.88H261v1.36h-1.84V188a.75.75,0,0,0,.84.86,2.24,2.24,0,0,0,1-.23v1.28a2.69,2.69,0,0,1-1.42.36A1.76,1.76,0,0,1,257.6,188.28Z" transform="translate(-1 -10)" fill="#eee"/><path d="M262,186.77v0a3.41,3.41,0,0,1,3.35-3.58c2.18,0,3.29,1.72,3.29,3.69,0,.15,0,.29,0,.45h-5a1.92,1.92,0,0,0,2,1.74,2.49,2.49,0,0,0,1.86-.82l.93.82a3.47,3.47,0,0,1-2.81,1.28A3.42,3.42,0,0,1,262,186.77Zm5.08-.5a1.78,1.78,0,0,0-1.74-1.81,1.86,1.86,0,0,0-1.79,1.81Z" transform="translate(-1 -10)" fill="#eee"/><path d="M137.08,193.08c0-.58-.45-.85-1-.85h-1.21v2.57h.62V194h.4l.56.81h.75l-.65-.92A.79.79,0,0,0,137.08,193.08Zm-1.08.4h-.55v-.71H136c.27,0,.44.13.44.36S136.28,193.48,136,193.48Z" transform="translate(-1 -10)" fill="#eee"/><path d="M135.85,190.94a2.63,2.63,0,1,0,2.63,2.63A2.63,2.63,0,0,0,135.85,190.94Zm2.19,2.61v0a2.19,2.19,0,1,1-4.38,0h0a2.2,2.2,0,0,1,2.19-2.22A2.17,2.17,0,0,1,138,193.55Z" transform="translate(-1 -10)" fill="#eee"/><path d="M31,232.14c0,3.77.1,7.28-2.67,10.31-2.35,2.57-6,3.73-9.47,3.83H15.44c-3.45-.1-7.12-1.2-9.47-3.77-2.77-3-2.67-6.53-2.67-10.3v-14c0-2.35.37-6.17-2.3-7.16v-.16h9.94v.16c-2.62,1-2.31,4.81-2.31,7.16v14c0,7,2.94,10.2,8.32,10.2a9.25,9.25,0,0,0,7.64-3.66c1.15-1.57,1.1-2.88,1.1-4.76V218.24c0-2.35.31-6.17-2.3-7.16v-.16h9.94l.05.16c-2.67,1-2.36,4.81-2.36,7.22L31,232.14Z" transform="translate(-1 -10)" fill="#eee"/><path d="M46.61,215.37l-6.53,17-2.73,7.38c-1.1,2.92-1.46,4.44,1,5.38v.16H28.78v-.16c3-1.51,3.92-4.44,5.07-7.43l8.73-21.81c.74-1.88,1.73-4.08-.78-4.86v-.16h8.26l10.88,26.83c1.2,3,2.15,5.92,5.13,7.43v.16H55.34v-.16c2.57-1.15,2.15-1.72.74-5.38l-2.83-7.38-6.64-17Z" transform="translate(-1 -10)" fill="#eee"/><path d="M96.36,214.21a9.09,9.09,0,0,0,.78-3.24v-.05h9v.16c-1.26.36-1.62,1.88-1.62,3.08L108,239.85c.31,2.46.58,3.87,2.67,5.33v.16h-10.1v-.16c1.84-.57,2.15-2.14,2.15-3.92l-3-25.21L88,246c-2.62-2-3.35-3.4-4.61-6.33L73.5,216.1l-3,22.49c-.42,3.19-.79,5.49,1.67,6.59v.16H63.66v-.16c2.2-1.93,2.51-4.5,2.93-7.32l3-21.92c.21-1.46.79-3.55-1.62-4.86v-.16h9.16V211a6.25,6.25,0,0,0,.73,2.36l9.83,23.07,8.69-22.19Z" transform="translate(-1 -10)" fill="#eee"/><path d="M131.45,217.15a11.87,11.87,0,0,0-8.21-3.3c-3,0-6.75,1.15-6.75,4.76,0,7.17,18,7.06,18,16.74,0,5.6-5.85,10.83-14,10.83a27,27,0,0,1-9.36-1.57l-1.52-6.54A18.09,18.09,0,0,0,121,242.41c3,0,7.48-1.78,7.48-5.44,0-8.16-18-6.7-18-17.79,0-6.58,6.76-9.1,13.14-9.1a26.44,26.44,0,0,1,7.79,1.15v5.92Z" transform="translate(-1 -10)" fill="#eee"/><path d="M46.69,239.28a4.38,4.38,0,1,0-4.38-4.38,4.39,4.39,0,0,0,4.38,4.38Z" transform="translate(-1 -10)" fill="#eee"/><rect x="144.9" y="200" width="1" height="36.07" fill="#eee"/><path d="M155.18,216.08h3.58c2.12,0,3.46,1.21,3.46,3v0c0,2-1.64,3.1-3.64,3.1h-1.8v2.93h-1.6Zm3.45,4.73c1.21,0,2-.68,2-1.62v0c0-1.07-.77-1.63-2-1.63h-1.85v3.28Z" transform="translate(-1 -10)" fill="#eee"/><path d="M163.09,224.28l.7-1.06a3.89,3.89,0,0,0,2.25.84c.67,0,1.06-.29,1.06-.74v0c0-.53-.73-.71-1.53-1-1-.28-2.15-.7-2.15-2v0a2.19,2.19,0,0,1,2.45-2.09,4.76,4.76,0,0,1,2.52.78l-.62,1.12a4,4,0,0,0-1.94-.66c-.61,0-1,.29-1,.69v0c0,.49.74.7,1.54,1,1,.31,2.14.77,2.14,2v0c0,1.44-1.12,2.16-2.55,2.16A4.77,4.77,0,0,1,163.09,224.28Z" transform="translate(-1 -10)" fill="#eee"/><path d="M169.82,226.88l.53-1.17a1.92,1.92,0,0,0,.93.26c.44,0,.71-.19,1-.79l-2.86-6.87h1.68l2,5.1,1.78-5.1h1.64l-2.73,7.06c-.55,1.41-1.16,1.93-2.27,1.93A3.19,3.19,0,0,1,169.82,226.88Z" transform="translate(-1 -10)" fill="#eee"/><path d="M177,221.78v0a3.54,3.54,0,0,1,3.56-3.59,3.42,3.42,0,0,1,2.74,1.18l-1,1.06a2.3,2.3,0,0,0-1.78-.86,2.06,2.06,0,0,0-2,2.18v0a2.09,2.09,0,0,0,2.06,2.21,2.42,2.42,0,0,0,1.78-.86l1,.94a3.6,3.6,0,0,1-6.36-2.27Z" transform="translate(-1 -10)" fill="#eee"/><path d="M184.65,215.69h1.58v3.69a2.47,2.47,0,0,1,2.14-1.21,2.36,2.36,0,0,1,2.45,2.64v4.37h-1.58v-3.9c0-1.07-.53-1.68-1.47-1.68a1.52,1.52,0,0,0-1.54,1.7v3.88h-1.58Z" transform="translate(-1 -10)" fill="#eee"/><path d="M192.65,215.77h1.69v1.49h-1.69Zm.07,2.54h1.57v6.87h-1.57Z" transform="translate(-1 -10)" fill="#eee"/><path d="M200.45,225.18v-.85a2.79,2.79,0,0,1-2.23,1,2.19,2.19,0,0,1-2.44-2.12v0c0-1.53,1.18-2.25,2.78-2.25a5.78,5.78,0,0,1,1.9.28v-.13c0-1-.6-1.47-1.69-1.47a4.74,4.74,0,0,0-2,.43l-.43-1.26a5.83,5.83,0,0,1,2.61-.57c2,0,3,1.07,3,2.9v4.07Zm0-2.87a4.37,4.37,0,0,0-1.57-.28c-1,0-1.57.41-1.57,1.07v0c0,.65.58,1,1.32,1,1.05,0,1.82-.59,1.82-1.45Z" transform="translate(-1 -10)" fill="#eee"/><path d="M204,223.28v-3.61h-.87v-1.36H204v-1.88h1.57v1.88h1.85v1.36h-1.85V223a.76.76,0,0,0,.85.86,2.16,2.16,0,0,0,1-.23v1.28a2.66,2.66,0,0,1-1.41.36A1.76,1.76,0,0,1,204,223.28Z" transform="translate(-1 -10)" fill="#eee"/><path d="M209,218.31h1.57v1.55a2.43,2.43,0,0,1,2.43-1.68v1.67h-.09c-1.37,0-2.34.89-2.34,2.72v2.61H209Z" transform="translate(-1 -10)" fill="#eee"/><path d="M214.17,215.77h1.69v1.49h-1.69Zm.07,2.54h1.57v6.87h-1.57Z" transform="translate(-1 -10)" fill="#eee"/><path d="M217.37,221.78v0a3.54,3.54,0,0,1,3.56-3.59,3.42,3.42,0,0,1,2.74,1.18l-1,1.06a2.3,2.3,0,0,0-1.78-.86,2.06,2.06,0,0,0-2,2.18v0A2.09,2.09,0,0,0,221,224a2.42,2.42,0,0,0,1.78-.86l.95.94a3.6,3.6,0,0,1-6.36-2.27Z" transform="translate(-1 -10)" fill="#eee"/><path d="M155.18,231.08h4a3.68,3.68,0,0,1,2.63.91,2.74,2.74,0,0,1,.75,2v0a2.72,2.72,0,0,1-2.17,2.75l2.46,3.45H161L158.78,237h-2v3.17h-1.6Zm3.94,4.51c1.14,0,1.87-.6,1.87-1.52v0c0-1-.7-1.51-1.89-1.51h-2.32v3.06Z" transform="translate(-1 -10)" fill="#eee"/><path d="M163.62,236.77v0a3.41,3.41,0,0,1,3.36-3.58c2.18,0,3.29,1.72,3.29,3.69,0,.15,0,.29,0,.45h-5a1.92,1.92,0,0,0,2,1.74,2.49,2.49,0,0,0,1.86-.82l.93.82a3.47,3.47,0,0,1-2.81,1.28A3.43,3.43,0,0,1,163.62,236.77Zm5.09-.5a1.79,1.79,0,0,0-1.75-1.81,1.86,1.86,0,0,0-1.78,1.81Z" transform="translate(-1 -10)" fill="#eee"/><path d="M171.21,239.28l.7-1.06a3.91,3.91,0,0,0,2.25.84c.68,0,1.07-.29,1.07-.74v0c0-.53-.73-.71-1.54-1-1-.28-2.14-.7-2.14-2v0A2.19,2.19,0,0,1,174,233.2a4.73,4.73,0,0,1,2.52.78l-.62,1.12a3.91,3.91,0,0,0-1.94-.66c-.61,0-1,.29-1,.69v0c0,.49.74.7,1.55,1,1,.31,2.13.77,2.13,2v0c0,1.44-1.12,2.16-2.55,2.16A4.81,4.81,0,0,1,171.21,239.28Z" transform="translate(-1 -10)" fill="#eee"/><path d="M177.78,236.77v0a3.41,3.41,0,0,1,3.35-3.58c2.19,0,3.29,1.72,3.29,3.69,0,.15,0,.29,0,.45h-5.05a1.93,1.93,0,0,0,2,1.74,2.51,2.51,0,0,0,1.86-.82l.92.82a3.47,3.47,0,0,1-2.81,1.28A3.42,3.42,0,0,1,177.78,236.77Zm5.08-.5a1.78,1.78,0,0,0-1.74-1.81,1.86,1.86,0,0,0-1.78,1.81Z" transform="translate(-1 -10)" fill="#eee"/><path d="M190.13,240.18v-.85a2.77,2.77,0,0,1-2.22,1,2.2,2.2,0,0,1-2.45-2.12v0c0-1.53,1.19-2.25,2.79-2.25a5.71,5.71,0,0,1,1.89.28v-.13c0-1-.59-1.47-1.69-1.47a4.81,4.81,0,0,0-2,.43l-.43-1.26a5.9,5.9,0,0,1,2.62-.57c2,0,3,1.07,3,2.9v4.07Zm0-2.87a4.37,4.37,0,0,0-1.57-.28c-1,0-1.58.41-1.58,1.07v0c0,.65.59,1,1.33,1,1,0,1.82-.59,1.82-1.45Z" transform="translate(-1 -10)" fill="#eee"/><path d="M193.55,233.31h1.57v1.55a2.45,2.45,0,0,1,2.44-1.68v1.67h-.1c-1.37,0-2.34.89-2.34,2.72v2.61h-1.57Z" transform="translate(-1 -10)" fill="#eee"/><path d="M198.36,236.78v0a3.54,3.54,0,0,1,3.56-3.59,3.43,3.43,0,0,1,2.74,1.18l-1,1.06a2.3,2.3,0,0,0-1.78-.86,2.06,2.06,0,0,0-2,2.18v0a2.09,2.09,0,0,0,2,2.21,2.4,2.4,0,0,0,1.78-.86l1,.94a3.6,3.6,0,0,1-6.35-2.27Z" transform="translate(-1 -10)" fill="#eee"/><path d="M206,230.69h1.57v3.69a2.48,2.48,0,0,1,2.15-1.21,2.35,2.35,0,0,1,2.44,2.64v4.37h-1.57v-3.9c0-1.07-.53-1.68-1.47-1.68a1.53,1.53,0,0,0-1.55,1.7v3.88H206Z" transform="translate(-1 -10)" fill="#eee"/><path d="M217.37,231.08H219v9.1h-1.6Z" transform="translate(-1 -10)" fill="#eee"/><path d="M220.9,233.31h1.57v1.07a2.47,2.47,0,0,1,2.15-1.21,2.36,2.36,0,0,1,2.44,2.64v4.37h-1.57v-3.9c0-1.07-.54-1.68-1.47-1.68a1.53,1.53,0,0,0-1.55,1.7v3.88H220.9Z" transform="translate(-1 -10)" fill="#eee"/><path d="M228.36,239.28l.7-1.06a3.91,3.91,0,0,0,2.25.84c.67,0,1.06-.29,1.06-.74v0c0-.53-.72-.71-1.53-1-1-.28-2.15-.7-2.15-2v0a2.19,2.19,0,0,1,2.45-2.09,4.76,4.76,0,0,1,2.52.78L233,235.1a4,4,0,0,0-1.94-.66c-.61,0-1,.29-1,.69v0c0,.49.74.7,1.54,1,1,.31,2.14.77,2.14,2v0c0,1.44-1.12,2.16-2.55,2.16A4.79,4.79,0,0,1,228.36,239.28Z" transform="translate(-1 -10)" fill="#eee"/><path d="M235.67,238.28v-3.61h-.87v-1.36h.87v-1.88h1.57v1.88h1.85v1.36h-1.85V238a.75.75,0,0,0,.85.86,2.16,2.16,0,0,0,1-.23v1.28a2.67,2.67,0,0,1-1.42.36A1.76,1.76,0,0,1,235.67,238.28Z" transform="translate(-1 -10)" fill="#eee"/><path d="M240.54,230.77h1.69v1.49h-1.69Zm.06,2.54h1.58v6.87H240.6Z" transform="translate(-1 -10)" fill="#eee"/><path d="M244.41,238.28v-3.61h-.87v-1.36h.87v-1.88H246v1.88h1.84v1.36H246V238a.75.75,0,0,0,.84.86,2.24,2.24,0,0,0,1-.23v1.28a2.69,2.69,0,0,1-1.42.36A1.76,1.76,0,0,1,244.41,238.28Z" transform="translate(-1 -10)" fill="#eee"/><path d="M249.21,237.68v-4.37h1.57v3.9c0,1.07.53,1.68,1.47,1.68a1.52,1.52,0,0,0,1.54-1.7v-3.88h1.58v6.87h-1.58v-1.07a2.45,2.45,0,0,1-2.14,1.21A2.35,2.35,0,0,1,249.21,237.68Z" transform="translate(-1 -10)" fill="#eee"/><path d="M257.6,238.28v-3.61h-.87v-1.36h.87v-1.88h1.58v1.88H261v1.36h-1.84V238a.75.75,0,0,0,.84.86,2.24,2.24,0,0,0,1-.23v1.28a2.69,2.69,0,0,1-1.42.36A1.76,1.76,0,0,1,257.6,238.28Z" transform="translate(-1 -10)" fill="#eee"/><path d="M262,236.77v0a3.41,3.41,0,0,1,3.35-3.58c2.18,0,3.29,1.72,3.29,3.69,0,.15,0,.29,0,.45h-5a1.92,1.92,0,0,0,2,1.74,2.49,2.49,0,0,0,1.86-.82l.93.82a3.47,3.47,0,0,1-2.81,1.28A3.42,3.42,0,0,1,262,236.77Zm5.08-.5a1.78,1.78,0,0,0-1.74-1.81,1.86,1.86,0,0,0-1.79,1.81Z" transform="translate(-1 -10)" fill="#eee"/><path d="M137.06,243.08c0-.58-.44-.85-1-.85h-1.21v2.58h.62V244h.4l.55.82h.76l-.66-.93A.78.78,0,0,0,137.06,243.08Zm-1.08.4h-.54v-.71H136c.27,0,.44.13.44.36S136.27,243.48,136,243.48Z" transform="translate(-1 -10)" fill="#eee"/><path d="M135.84,240.94a2.63,2.63,0,1,0,2.63,2.63A2.63,2.63,0,0,0,135.84,240.94Zm2.19,2.61v0a2.19,2.19,0,1,1-4.38,0h0a2.19,2.19,0,1,1,4.38,0Z" transform="translate(-1 -10)" fill="#eee"/><path d="M31,282.14c0,3.77.1,7.28-2.67,10.31-2.35,2.57-6,3.73-9.47,3.83H15.44c-3.45-.1-7.12-1.2-9.47-3.77-2.77-3-2.67-6.53-2.67-10.3v-14c0-2.35.37-6.17-2.3-7.16v-.16h9.94v.16c-2.62,1-2.31,4.81-2.31,7.16v14c0,7,2.94,10.2,8.32,10.2a9.25,9.25,0,0,0,7.64-3.66c1.15-1.57,1.1-2.88,1.1-4.76V268.24c0-2.35.31-6.17-2.3-7.16v-.16h9.94l.05.16c-2.67,1-2.36,4.81-2.36,7.22L31,282.14Z" transform="translate(-1 -10)" fill="#eee"/><path d="M46.61,265.37l-6.53,17.05-2.73,7.38c-1.1,2.92-1.46,4.44,1,5.38v.16H28.78v-.16c3-1.51,3.92-4.44,5.07-7.43l8.73-21.81c.74-1.88,1.73-4.08-.78-4.86v-.16h8.26l10.88,26.83c1.2,3,2.15,5.92,5.13,7.43v.16H55.34v-.16c2.57-1.15,2.15-1.72.74-5.38l-2.83-7.38-6.64-17.05Z" transform="translate(-1 -10)" fill="#eee"/><path d="M96.36,264.21a9.09,9.09,0,0,0,.78-3.24v-.05h9v.16c-1.26.36-1.62,1.88-1.62,3.08L108,289.85c.31,2.46.58,3.87,2.67,5.33v.16h-10.1v-.16c1.84-.57,2.15-2.14,2.15-3.92l-3-25.21L88,296c-2.62-2-3.35-3.4-4.61-6.33L73.5,266.1l-3,22.49c-.42,3.19-.79,5.49,1.67,6.59v.16H63.66v-.16c2.2-1.93,2.51-4.5,2.93-7.32l3-21.92c.21-1.46.79-3.55-1.62-4.86v-.16h9.16V261a6.25,6.25,0,0,0,.73,2.36l9.83,23.07,8.69-22.19Z" transform="translate(-1 -10)" fill="#eee"/><path d="M131.45,267.15a11.87,11.87,0,0,0-8.21-3.3c-3,0-6.75,1.15-6.75,4.76,0,7.17,18,7.06,18,16.74,0,5.6-5.85,10.83-14,10.83a27,27,0,0,1-9.36-1.57l-1.52-6.54A18.09,18.09,0,0,0,121,292.41c3,0,7.48-1.78,7.48-5.44,0-8.16-18-6.7-18-17.79,0-6.58,6.76-9.1,13.14-9.1a26.44,26.44,0,0,1,7.79,1.15v5.92Z" transform="translate(-1 -10)" fill="#eee"/><path d="M46.69,289.28a4.38,4.38,0,1,0-4.38-4.38,4.39,4.39,0,0,0,4.38,4.38Z" transform="translate(-1 -10)" fill="#eee"/><rect x="144.9" y="250" width="1" height="36.07" fill="#eee"/><path d="M155.18,266.08h1.6v3.78h4.34v-3.78h1.6v9.1h-1.6v-3.84h-4.34v3.84h-1.6Z" transform="translate(-1 -10)" fill="#eee"/><path d="M168.85,275.18v-.85a2.77,2.77,0,0,1-2.22,1,2.2,2.2,0,0,1-2.45-2.12v0c0-1.53,1.19-2.25,2.78-2.25a5.73,5.73,0,0,1,1.9.28v-.13c0-.95-.6-1.47-1.69-1.47a4.78,4.78,0,0,0-2,.43l-.43-1.26a5.86,5.86,0,0,1,2.61-.57c2,0,3,1.07,3,2.9v4.07Zm0-2.87a4.37,4.37,0,0,0-1.57-.28c-1,0-1.58.41-1.58,1.07v0c0,.65.59,1,1.33,1,1,0,1.82-.59,1.82-1.45Z" transform="translate(-1 -10)" fill="#eee"/><path d="M172.27,268.31h1.57v1.55a2.43,2.43,0,0,1,2.43-1.68v1.67h-.09c-1.38,0-2.34.89-2.34,2.71v2.62h-1.57Z" transform="translate(-1 -10)" fill="#eee"/><path d="M177.16,268.31h1.69l1.84,5.05,1.86-5.05h1.66l-2.81,6.92H180Z" transform="translate(-1 -10)" fill="#eee"/><path d="M184.74,271.77v0a3.41,3.41,0,0,1,3.36-3.58c2.18,0,3.28,1.72,3.28,3.69,0,.15,0,.29,0,.45h-5.05a1.93,1.93,0,0,0,2,1.74,2.51,2.51,0,0,0,1.86-.82l.92.82a3.58,3.58,0,0,1-6.33-2.28Zm5.08-.5a1.78,1.78,0,0,0-1.74-1.81,1.86,1.86,0,0,0-1.78,1.81Z" transform="translate(-1 -10)" fill="#eee"/><path d="M192.33,276.88l.54-1.17a1.85,1.85,0,0,0,.92.26c.44,0,.71-.19,1-.79l-2.86-6.87h1.68l1.95,5.1,1.78-5.1H199l-2.73,7.06c-.55,1.41-1.16,1.93-2.26,1.93A3.23,3.23,0,0,1,192.33,276.88Z" transform="translate(-1 -10)" fill="#eee"/><path d="M208.58,274.13a4,4,0,0,1-2.79,1.18,2.69,2.69,0,0,1-3-2.6v0a2.74,2.74,0,0,1,1.94-2.55,2.93,2.93,0,0,1-.75-1.89v0a2.38,2.38,0,0,1,2.61-2.29,2.25,2.25,0,0,1,2.42,2.2v0c0,1.19-.79,1.91-2,2.36l1.56,1.59a13.24,13.24,0,0,0,1-1.76l1.21.64a14.78,14.78,0,0,1-1.23,2.08l1.43,1.46-1.19.84Zm-.91-.94-2-2.07a1.7,1.7,0,0,0-1.2,1.51v0A1.38,1.38,0,0,0,206,274,2.52,2.52,0,0,0,207.67,273.19Zm0-4.95v0a1,1,0,0,0-1-1,1,1,0,0,0-1.08,1.09v0a1.91,1.91,0,0,0,.69,1.35C207.13,269.31,207.62,268.89,207.62,268.24Z" transform="translate(-1 -10)" fill="#eee"/><path d="M215.54,266.08h4.08a3.29,3.29,0,0,1,2.38.8,2.07,2.07,0,0,1,.61,1.51v0a2.16,2.16,0,0,1-1.3,2,2.22,2.22,0,0,1,1.81,2.21v0c0,1.63-1.34,2.5-3.37,2.5h-4.21Zm3.75,3.83c1,0,1.72-.4,1.72-1.23v0c0-.71-.57-1.16-1.6-1.16h-2.3v2.42Zm.47,3.85c1.09,0,1.76-.43,1.76-1.25v0c0-.77-.61-1.22-1.87-1.22h-2.54v2.49Z" transform="translate(-1 -10)" fill="#eee"/><path d="M224.13,271.77v0a3.41,3.41,0,0,1,3.36-3.58c2.18,0,3.29,1.72,3.29,3.69,0,.15,0,.29,0,.45h-5a1.92,1.92,0,0,0,2,1.74,2.49,2.49,0,0,0,1.86-.82l.93.82a3.49,3.49,0,0,1-2.81,1.28A3.43,3.43,0,0,1,224.13,271.77Zm5.09-.5a1.78,1.78,0,0,0-1.74-1.81,1.86,1.86,0,0,0-1.79,1.81Z" transform="translate(-1 -10)" fill="#eee"/><path d="M232.32,268.31h1.58v1.55a2.43,2.43,0,0,1,2.43-1.68v1.67h-.09c-1.38,0-2.34.89-2.34,2.71v2.62h-1.58Z" transform="translate(-1 -10)" fill="#eee"/><path d="M237.54,268.31h1.57v1.07a2.47,2.47,0,0,1,2.15-1.21,2.36,2.36,0,0,1,2.44,2.64v4.37h-1.57v-3.9c0-1.07-.54-1.68-1.47-1.68a1.53,1.53,0,0,0-1.55,1.7v3.88h-1.57Z" transform="translate(-1 -10)" fill="#eee"/><path d="M245.54,265.77h1.69v1.49h-1.69Zm.06,2.54h1.57v6.87H245.6Z" transform="translate(-1 -10)" fill="#eee"/><path d="M248.73,271.78v0a3.54,3.54,0,0,1,3.56-3.59,3.42,3.42,0,0,1,2.74,1.18l-1,1.06a2.3,2.3,0,0,0-1.78-.86,2.06,2.06,0,0,0-2,2.18v0a2.09,2.09,0,0,0,2.06,2.21,2.42,2.42,0,0,0,1.78-.86l1,.94a3.6,3.6,0,0,1-6.36-2.27Z" transform="translate(-1 -10)" fill="#eee"/><path d="M255.89,271.77v0a3.41,3.41,0,0,1,3.36-3.58c2.18,0,3.29,1.72,3.29,3.69,0,.15,0,.29,0,.45h-5a1.92,1.92,0,0,0,2,1.74,2.49,2.49,0,0,0,1.86-.82l.93.82a3.49,3.49,0,0,1-2.81,1.28A3.43,3.43,0,0,1,255.89,271.77Zm5.09-.5a1.79,1.79,0,0,0-1.75-1.81,1.86,1.86,0,0,0-1.78,1.81Z" transform="translate(-1 -10)" fill="#eee"/><path d="M266.41,273.84l1-1.08a2.27,2.27,0,0,0,1.84,1.07c.85,0,1.44-.58,1.44-1.78v-6h1.64v6a3.27,3.27,0,0,1-.85,2.42,3,3,0,0,1-2.21.81A3.43,3.43,0,0,1,266.41,273.84Z" transform="translate(-1 -10)" fill="#eee"/><path d="M273.76,271.78v0a3.66,3.66,0,0,1,7.32,0v0a3.66,3.66,0,0,1-7.32,0Zm5.75,0v0a2.12,2.12,0,0,0-2.11-2.21,2.06,2.06,0,0,0-2.06,2.18v0a2.12,2.12,0,0,0,2.09,2.21A2.07,2.07,0,0,0,279.51,271.78Z" transform="translate(-1 -10)" fill="#eee"/><path d="M282.61,268.31h1.58v1.07a2.47,2.47,0,0,1,2.14-1.21,2.36,2.36,0,0,1,2.45,2.64v4.37H287.2v-3.9c0-1.07-.53-1.68-1.47-1.68a1.52,1.52,0,0,0-1.54,1.7v3.88h-1.58Z" transform="translate(-1 -10)" fill="#eee"/><path d="M290.27,271.77v0a3.41,3.41,0,0,1,3.35-3.58c2.19,0,3.29,1.72,3.29,3.69,0,.15,0,.29,0,.45h-5.05a1.92,1.92,0,0,0,2,1.74,2.52,2.52,0,0,0,1.86-.82l.92.82a3.47,3.47,0,0,1-2.81,1.28A3.42,3.42,0,0,1,290.27,271.77Zm5.08-.5a1.78,1.78,0,0,0-1.74-1.81,1.86,1.86,0,0,0-1.78,1.81Z" transform="translate(-1 -10)" fill="#eee"/><path d="M297.85,274.28l.71-1.06a3.89,3.89,0,0,0,2.25.84c.67,0,1.06-.29,1.06-.74v0c0-.53-.73-.71-1.53-1-1-.28-2.15-.7-2.15-2v0a2.19,2.19,0,0,1,2.45-2.09,4.79,4.79,0,0,1,2.52.78l-.63,1.12a3.91,3.91,0,0,0-1.93-.66c-.61,0-1,.29-1,.69v0c0,.49.74.7,1.54,1,1,.31,2.13.77,2.13,2v0c0,1.44-1.11,2.16-2.54,2.16A4.82,4.82,0,0,1,297.85,274.28Z" transform="translate(-1 -10)" fill="#eee"/><path d="M155.18,281.08h6.74v1.43h-5.14v2.36h4.56v1.43h-4.56v2.45H162v1.43h-6.81Z" transform="translate(-1 -10)" fill="#eee"/><path d="M163,291.88l.53-1.17a1.92,1.92,0,0,0,.93.26c.44,0,.71-.19,1-.79l-2.86-6.87h1.68l1.95,5.1,1.78-5.1h1.64l-2.73,7.06c-.55,1.41-1.16,1.93-2.26,1.93A3.2,3.2,0,0,1,163,291.88Z" transform="translate(-1 -10)" fill="#eee"/><path d="M170.17,286.77v0a3.41,3.41,0,0,1,3.35-3.58c2.19,0,3.29,1.72,3.29,3.69,0,.15,0,.29,0,.45h-5a1.93,1.93,0,0,0,2,1.74,2.51,2.51,0,0,0,1.86-.82l.92.82a3.47,3.47,0,0,1-2.81,1.28A3.42,3.42,0,0,1,170.17,286.77Zm5.08-.5a1.78,1.78,0,0,0-1.74-1.81,1.86,1.86,0,0,0-1.78,1.81Z" transform="translate(-1 -10)" fill="#eee"/><path d="M181.68,281.08h1.59v9.1h-1.59Z" transform="translate(-1 -10)" fill="#eee"/><path d="M185.21,283.31h1.57v1.07a2.47,2.47,0,0,1,2.14-1.21,2.36,2.36,0,0,1,2.45,2.64v4.37H189.8v-3.9c0-1.07-.54-1.68-1.47-1.68a1.53,1.53,0,0,0-1.55,1.7v3.88h-1.57Z" transform="translate(-1 -10)" fill="#eee"/><path d="M192.66,289.28l.71-1.06a3.89,3.89,0,0,0,2.25.84c.67,0,1.06-.29,1.06-.74v0c0-.53-.73-.71-1.53-1-1-.28-2.15-.7-2.15-2v0a2.19,2.19,0,0,1,2.45-2.09A4.76,4.76,0,0,1,198,284l-.62,1.12a4,4,0,0,0-1.94-.66c-.61,0-1,.29-1,.69v0c0,.49.74.7,1.54,1,1,.31,2.13.77,2.13,2v0c0,1.44-1.11,2.16-2.54,2.16A4.82,4.82,0,0,1,192.66,289.28Z" transform="translate(-1 -10)" fill="#eee"/><path d="M200,288.28v-3.61h-.87v-1.36H200v-1.88h1.57v1.88h1.85v1.36h-1.85V288a.75.75,0,0,0,.84.86,2.17,2.17,0,0,0,1-.23v1.28a2.67,2.67,0,0,1-1.42.36A1.76,1.76,0,0,1,200,288.28Z" transform="translate(-1 -10)" fill="#eee"/><path d="M204.85,280.77h1.69v1.49h-1.69Zm.06,2.54h1.58v6.87h-1.58Z" transform="translate(-1 -10)" fill="#eee"/><path d="M208.72,288.28v-3.61h-.87v-1.36h.87v-1.88h1.57v1.88h1.85v1.36h-1.85V288a.76.76,0,0,0,.85.86,2.16,2.16,0,0,0,1-.23v1.28a2.66,2.66,0,0,1-1.41.36A1.76,1.76,0,0,1,208.72,288.28Z" transform="translate(-1 -10)" fill="#eee"/><path d="M213.51,287.68v-4.37h1.58v3.9c0,1.07.53,1.68,1.47,1.68a1.52,1.52,0,0,0,1.54-1.7v-3.88h1.58v6.87H218.1v-1.07a2.47,2.47,0,0,1-2.14,1.21A2.36,2.36,0,0,1,213.51,287.68Z" transform="translate(-1 -10)" fill="#eee"/><path d="M221.91,288.28v-3.61H221v-1.36h.87v-1.88h1.57v1.88h1.85v1.36h-1.85V288a.76.76,0,0,0,.85.86,2.16,2.16,0,0,0,1-.23v1.28a2.66,2.66,0,0,1-1.41.36A1.76,1.76,0,0,1,221.91,288.28Z" transform="translate(-1 -10)" fill="#eee"/><path d="M226.28,286.77v0a3.41,3.41,0,0,1,3.36-3.58c2.18,0,3.29,1.72,3.29,3.69,0,.15,0,.29,0,.45h-5a1.92,1.92,0,0,0,2,1.74,2.49,2.49,0,0,0,1.86-.82l.92.82a3.58,3.58,0,0,1-6.33-2.28Zm5.09-.5a1.79,1.79,0,0,0-1.75-1.81,1.86,1.86,0,0,0-1.78,1.81Z" transform="translate(-1 -10)" fill="#eee"/><path d="M137.08,293.08c0-.58-.45-.85-1-.85h-1.21v2.57h.62V294h.4l.56.81h.75l-.65-.92A.79.79,0,0,0,137.08,293.08Zm-1.08.4h-.55v-.71H136c.27,0,.44.13.44.36S136.28,293.48,136,293.48Z" transform="translate(-1 -10)" fill="#eee"/><path d="M135.85,290.94a2.63,2.63,0,1,0,2.63,2.63A2.63,2.63,0,0,0,135.85,290.94Zm2.19,2.61v0a2.19,2.19,0,1,1-4.38,0h0a2.2,2.2,0,0,1,2.19-2.22A2.17,2.17,0,0,1,138,293.55Z" transform="translate(-1 -10)" fill="#eee"/><path d="M31,332.14c0,3.77.1,7.28-2.67,10.31-2.35,2.57-6,3.73-9.47,3.83H15.44c-3.45-.1-7.12-1.2-9.47-3.77-2.77-3-2.67-6.53-2.67-10.3v-14c0-2.35.37-6.17-2.3-7.16v-.16h9.94v.16c-2.62,1-2.31,4.81-2.31,7.16v14c0,7,2.94,10.2,8.32,10.2a9.25,9.25,0,0,0,7.64-3.66c1.15-1.57,1.1-2.88,1.1-4.76V318.24c0-2.35.31-6.17-2.3-7.16v-.16h9.94l.05.16c-2.67,1-2.36,4.81-2.36,7.22L31,332.14Z" transform="translate(-1 -10)" fill="#eee"/><path d="M46.61,315.37l-6.53,17.05-2.73,7.38c-1.1,2.92-1.46,4.44,1,5.38v.16H28.78v-.16c3-1.51,3.92-4.44,5.07-7.43l8.73-21.81c.74-1.88,1.73-4.08-.78-4.86v-.16h8.26l10.88,26.83c1.2,3,2.15,5.92,5.13,7.43v.16H55.34v-.16c2.57-1.15,2.15-1.72.74-5.38l-2.83-7.38-6.64-17.05Z" transform="translate(-1 -10)" fill="#eee"/><path d="M96.36,314.21a9.09,9.09,0,0,0,.78-3.24v-.05h9v.16c-1.26.36-1.62,1.88-1.62,3.08L108,339.85c.31,2.46.58,3.87,2.67,5.33v.16h-10.1v-.16c1.84-.57,2.15-2.14,2.15-3.92l-3-25.21L88,346c-2.62-2-3.35-3.4-4.61-6.33L73.5,316.1l-3,22.49c-.42,3.19-.79,5.49,1.67,6.59v.16H63.66v-.16c2.2-1.93,2.51-4.5,2.93-7.32l3-21.92c.21-1.46.79-3.55-1.62-4.86v-.16h9.16V311a6.25,6.25,0,0,0,.73,2.36l9.83,23.07,8.69-22.19Z" transform="translate(-1 -10)" fill="#eee"/><path d="M131.45,317.15a11.87,11.87,0,0,0-8.21-3.3c-3,0-6.75,1.15-6.75,4.76,0,7.17,18,7.06,18,16.74,0,5.6-5.85,10.83-14,10.83a27,27,0,0,1-9.36-1.57l-1.52-6.54A18.09,18.09,0,0,0,121,342.41c3,0,7.48-1.78,7.48-5.44,0-8.16-18-6.7-18-17.79,0-6.58,6.76-9.1,13.14-9.1a26.44,26.44,0,0,1,7.79,1.15v5.92Z" transform="translate(-1 -10)" fill="#eee"/><path d="M46.69,339.28a4.38,4.38,0,1,0-4.38-4.38,4.39,4.39,0,0,0,4.38,4.38Z" transform="translate(-1 -10)" fill="#eee"/><rect x="144.9" y="300" width="1" height="36.07" fill="#eee"/><path d="M154.87,323.84l1-1.08a2.26,2.26,0,0,0,1.83,1.07c.86,0,1.45-.58,1.45-1.78v-6h1.64v6a3.31,3.31,0,0,1-.85,2.42,3,3,0,0,1-2.21.81A3.43,3.43,0,0,1,154.87,323.84Z" transform="translate(-1 -10)" fill="#eee"/><path d="M166.79,325.18v-.85a2.79,2.79,0,0,1-2.23,1,2.19,2.19,0,0,1-2.44-2.12v0c0-1.53,1.18-2.25,2.78-2.25a5.78,5.78,0,0,1,1.9.28v-.13c0-.95-.6-1.47-1.69-1.47a4.74,4.74,0,0,0-2,.43l-.43-1.26a5.83,5.83,0,0,1,2.61-.57c2,0,3,1.07,3,2.9v4.07Zm0-2.87a4.47,4.47,0,0,0-1.58-.28c-1,0-1.57.41-1.57,1.07v0c0,.65.59,1,1.33,1,1,0,1.82-.59,1.82-1.45Z" transform="translate(-1 -10)" fill="#eee"/><path d="M169.8,321.78v0a3.54,3.54,0,0,1,3.56-3.59,3.45,3.45,0,0,1,2.75,1.18l-1,1.06a2.3,2.3,0,0,0-1.78-.86,2.07,2.07,0,0,0-2,2.18v0a2.09,2.09,0,0,0,2.06,2.21,2.4,2.4,0,0,0,1.78-.86l.95.94a3.6,3.6,0,0,1-6.36-2.27Z" transform="translate(-1 -10)" fill="#eee"/><path d="M177.48,315.69h1.57v5.67l2.85-3.05h1.91l-2.73,2.8,2.82,4.07h-1.82l-2.07-3-1,1v2h-1.57Z" transform="translate(-1 -10)" fill="#eee"/><path d="M184.5,324.28l.71-1.06a3.88,3.88,0,0,0,2.24.84c.68,0,1.07-.29,1.07-.74v0c0-.53-.73-.71-1.53-1-1-.28-2.15-.7-2.15-2v0a2.19,2.19,0,0,1,2.45-2.09,4.79,4.79,0,0,1,2.52.78l-.63,1.12a3.91,3.91,0,0,0-1.93-.66c-.61,0-1,.29-1,.69v0c0,.49.75.7,1.55,1,1,.31,2.13.77,2.13,2v0c0,1.44-1.11,2.16-2.54,2.16A4.82,4.82,0,0,1,184.5,324.28Z" transform="translate(-1 -10)" fill="#eee"/><path d="M191.05,321.78v0a3.66,3.66,0,0,1,7.32,0v0a3.66,3.66,0,0,1-7.32,0Zm5.75,0v0a2.13,2.13,0,0,0-2.11-2.21,2.06,2.06,0,0,0-2.07,2.18v0a2.13,2.13,0,0,0,2.1,2.21A2.07,2.07,0,0,0,196.8,321.78Z" transform="translate(-1 -10)" fill="#eee"/><path d="M199.9,318.31h1.58v1.07a2.45,2.45,0,0,1,2.14-1.21,2.35,2.35,0,0,1,2.44,2.64v4.37h-1.57v-3.9c0-1.07-.53-1.68-1.47-1.68a1.52,1.52,0,0,0-1.54,1.7v3.88H199.9Z" transform="translate(-1 -10)" fill="#eee"/><path d="M213.38,317.56H210.5v-1.48h7.38v1.48H215v7.62h-1.62Z" transform="translate(-1 -10)" fill="#eee"/><path d="M217.22,323.4H219v1.78h-1.73Z" transform="translate(-1 -10)" fill="#eee"/><path d="M223.39,323.85l1-1.14a4.24,4.24,0,0,0,2.88,1.18c1,0,1.61-.45,1.61-1.14v0c0-.65-.36-1-2.05-1.39-1.94-.47-3-1-3-2.72v0c0-1.56,1.3-2.64,3.1-2.64a5.07,5.07,0,0,1,3.31,1.14l-.86,1.21a4.15,4.15,0,0,0-2.47-.94c-.94,0-1.48.49-1.48,1.08v0c0,.7.41,1,2.15,1.43,1.93.47,2.93,1.16,2.93,2.67v0c0,1.7-1.34,2.72-3.25,2.72A5.59,5.59,0,0,1,223.39,323.85Z" transform="translate(-1 -10)" fill="#eee"/><path d="M232.27,323.28v-3.61h-.87v-1.36h.87v-1.88h1.57v1.88h1.85v1.36h-1.85V323a.76.76,0,0,0,.85.86,2.16,2.16,0,0,0,1-.23v1.28a2.66,2.66,0,0,1-1.41.36A1.76,1.76,0,0,1,232.27,323.28Z" transform="translate(-1 -10)" fill="#eee"/><path d="M236.64,321.77v0a3.41,3.41,0,0,1,3.36-3.58c2.18,0,3.29,1.72,3.29,3.69,0,.15,0,.29,0,.45h-5a1.92,1.92,0,0,0,2,1.74,2.49,2.49,0,0,0,1.86-.82l.92.82a3.58,3.58,0,0,1-6.33-2.28Zm5.09-.5a1.79,1.79,0,0,0-1.75-1.81,1.86,1.86,0,0,0-1.78,1.81Z" transform="translate(-1 -10)" fill="#eee"/><path d="M244.83,318.31h1.57v1.15a2.75,2.75,0,0,1,2.33-1.29,3.29,3.29,0,0,1,3.2,3.56v0a3.29,3.29,0,0,1-3.2,3.56,2.81,2.81,0,0,1-2.33-1.21v3.15h-1.57Zm5.5,3.45v0a2,2,0,0,0-2-2.19,2.06,2.06,0,0,0-2,2.19v0a2.06,2.06,0,0,0,2,2.2A2,2,0,0,0,250.33,321.76Z" transform="translate(-1 -10)" fill="#eee"/><path d="M253.52,315.69h1.57v3.69a2.47,2.47,0,0,1,2.14-1.21,2.36,2.36,0,0,1,2.45,2.64v4.37h-1.57v-3.9c0-1.07-.54-1.68-1.47-1.68a1.53,1.53,0,0,0-1.55,1.7v3.88h-1.57Z" transform="translate(-1 -10)" fill="#eee"/><path d="M261.17,321.77v0a3.41,3.41,0,0,1,3.35-3.58c2.19,0,3.29,1.72,3.29,3.69,0,.15,0,.29,0,.45h-5.05a1.92,1.92,0,0,0,2,1.74,2.52,2.52,0,0,0,1.86-.82l.92.82a3.47,3.47,0,0,1-2.81,1.28A3.42,3.42,0,0,1,261.17,321.77Zm5.08-.5a1.78,1.78,0,0,0-1.74-1.81,1.86,1.86,0,0,0-1.78,1.81Z" transform="translate(-1 -10)" fill="#eee"/><path d="M269.36,318.31h1.57v1.07a2.47,2.47,0,0,1,2.15-1.21,2.36,2.36,0,0,1,2.44,2.64v4.37H274v-3.9c0-1.07-.54-1.68-1.47-1.68a1.53,1.53,0,0,0-1.55,1.7v3.88h-1.57Z" transform="translate(-1 -10)" fill="#eee"/><path d="M276.82,324.28l.7-1.06a3.91,3.91,0,0,0,2.25.84c.68,0,1.07-.29,1.07-.74v0c0-.53-.73-.71-1.54-1-1-.28-2.14-.7-2.14-2v0a2.18,2.18,0,0,1,2.44-2.09,4.76,4.76,0,0,1,2.52.78l-.62,1.12a3.94,3.94,0,0,0-1.94-.66c-.61,0-1,.29-1,.69v0c0,.49.74.7,1.55,1,1,.31,2.13.77,2.13,2v0c0,1.44-1.12,2.16-2.55,2.16A4.81,4.81,0,0,1,276.82,324.28Z" transform="translate(-1 -10)" fill="#eee"/><path d="M286.45,323.85l1-1.14a4.2,4.2,0,0,0,2.88,1.18c1,0,1.61-.45,1.61-1.14v0c0-.65-.37-1-2.06-1.39-1.93-.47-3-1-3-2.72v0c0-1.56,1.3-2.64,3.11-2.64a5,5,0,0,1,3.3,1.14l-.85,1.21a4.15,4.15,0,0,0-2.47-.94c-.94,0-1.49.49-1.49,1.08v0c0,.7.42,1,2.16,1.43,1.93.47,2.93,1.16,2.93,2.67v0c0,1.7-1.34,2.72-3.25,2.72A5.59,5.59,0,0,1,286.45,323.85Z" transform="translate(-1 -10)" fill="#eee"/><path d="M294.92,318.31h1.57v1.15a2.75,2.75,0,0,1,2.33-1.29,3.29,3.29,0,0,1,3.2,3.56v0a3.29,3.29,0,0,1-3.2,3.56,2.81,2.81,0,0,1-2.33-1.21v3.15h-1.57Zm5.5,3.45v0a2,2,0,0,0-2-2.19,2.06,2.06,0,0,0-2,2.19v0a2.06,2.06,0,0,0,2,2.2A2,2,0,0,0,300.42,321.76Z" transform="translate(-1 -10)" fill="#eee"/><path d="M303.55,315.77h1.69v1.49h-1.69Zm.06,2.54h1.58v6.87h-1.58Z" transform="translate(-1 -10)" fill="#eee"/><path d="M307.14,318.31h1.58v1.07a2.47,2.47,0,0,1,2.14-1.21,2.36,2.36,0,0,1,2.45,2.64v4.37h-1.58v-3.9c0-1.07-.53-1.68-1.47-1.68a1.52,1.52,0,0,0-1.54,1.7v3.88h-1.58Z" transform="translate(-1 -10)" fill="#eee"/><path d="M314.8,321.77v0a3.41,3.41,0,0,1,3.35-3.58c2.18,0,3.29,1.72,3.29,3.69a3.52,3.52,0,0,1,0,.45h-5a1.92,1.92,0,0,0,2,1.74,2.49,2.49,0,0,0,1.85-.82l.93.82a3.47,3.47,0,0,1-2.81,1.28A3.42,3.42,0,0,1,314.8,321.77Zm5.08-.5a1.78,1.78,0,0,0-1.74-1.81,1.86,1.86,0,0,0-1.78,1.81Z" transform="translate(-1 -10)" fill="#eee"/><path d="M160.86,339.13a4,4,0,0,1-2.79,1.18,2.69,2.69,0,0,1-3-2.6v0a2.74,2.74,0,0,1,1.94-2.55,2.93,2.93,0,0,1-.75-1.89v0a2.38,2.38,0,0,1,2.61-2.29,2.25,2.25,0,0,1,2.42,2.2v0c0,1.19-.8,1.91-2,2.36l1.56,1.59a12.22,12.22,0,0,0,1-1.76l1.21.64a14.83,14.83,0,0,1-1.24,2.08l1.43,1.46-1.18.84Zm-.91-.94-2-2.07a1.71,1.71,0,0,0-1.21,1.51v0a1.39,1.39,0,0,0,1.53,1.32A2.52,2.52,0,0,0,160,338.19Zm0-4.95v0a1,1,0,0,0-1-1,1,1,0,0,0-1.08,1.09v0a1.91,1.91,0,0,0,.69,1.35C159.41,334.32,159.9,333.89,159.9,333.24Z" transform="translate(-1 -10)" fill="#eee"/><path d="M167.82,331.08h1.48l4.87,6.29v-6.29h1.58v9.1h-1.34l-5-6.48v6.48h-1.57Z" transform="translate(-1 -10)" fill="#eee"/><path d="M177.28,336.77v0a3.41,3.41,0,0,1,3.35-3.58c2.19,0,3.29,1.72,3.29,3.69,0,.15,0,.29,0,.45h-5.05a1.92,1.92,0,0,0,2,1.74,2.51,2.51,0,0,0,1.86-.82l.92.82a3.47,3.47,0,0,1-2.81,1.28A3.42,3.42,0,0,1,177.28,336.77Zm5.08-.5a1.78,1.78,0,0,0-1.74-1.81,1.86,1.86,0,0,0-1.78,1.81Z" transform="translate(-1 -10)" fill="#eee"/><path d="M185.38,337.68v-4.37H187v3.9c0,1.07.53,1.68,1.46,1.68a1.53,1.53,0,0,0,1.55-1.7v-3.88h1.57v6.87H190v-1.07a2.47,2.47,0,0,1-2.14,1.21A2.36,2.36,0,0,1,185.38,337.68Z" transform="translate(-1 -10)" fill="#eee"/><path d="M193.47,333.31h1.58v1.55a2.43,2.43,0,0,1,2.43-1.68v1.67h-.09c-1.38,0-2.34.89-2.34,2.72v2.61h-1.58Z" transform="translate(-1 -10)" fill="#eee"/><path d="M198.27,336.78v0a3.66,3.66,0,0,1,7.32,0v0a3.66,3.66,0,0,1-7.32,0Zm5.75,0v0a2.12,2.12,0,0,0-2.11-2.21,2.06,2.06,0,0,0-2.07,2.18v0a2.13,2.13,0,0,0,2.1,2.21A2.07,2.07,0,0,0,204,336.78Z" transform="translate(-1 -10)" fill="#eee"/><path d="M206.51,339.28l.7-1.06a3.91,3.91,0,0,0,2.25.84c.68,0,1.07-.29,1.07-.74v0c0-.53-.73-.71-1.54-1-1-.28-2.14-.7-2.14-2v0a2.19,2.19,0,0,1,2.44-2.09,4.76,4.76,0,0,1,2.52.78l-.62,1.12a3.94,3.94,0,0,0-1.94-.66c-.61,0-1,.29-1,.69v0c0,.49.74.7,1.55,1,1,.31,2.13.77,2.13,2v0c0,1.44-1.12,2.16-2.55,2.16A4.81,4.81,0,0,1,206.51,339.28Z" transform="translate(-1 -10)" fill="#eee"/><path d="M213.05,336.78v0a3.54,3.54,0,0,1,3.57-3.59,3.43,3.43,0,0,1,2.74,1.18l-1,1.06a2.29,2.29,0,0,0-1.78-.86,2.06,2.06,0,0,0-2,2.18v0a2.09,2.09,0,0,0,2.05,2.21,2.4,2.4,0,0,0,1.78-.86l.95.94a3.6,3.6,0,0,1-6.36-2.27Z" transform="translate(-1 -10)" fill="#eee"/><path d="M220.68,330.77h1.69v1.49h-1.69Zm.06,2.54h1.58v6.87h-1.58Z" transform="translate(-1 -10)" fill="#eee"/><path d="M223.87,336.77v0a3.41,3.41,0,0,1,3.36-3.58c2.18,0,3.29,1.72,3.29,3.69,0,.15,0,.29,0,.45h-5a1.92,1.92,0,0,0,2,1.74,2.49,2.49,0,0,0,1.86-.82l.92.82a3.58,3.58,0,0,1-6.33-2.28Zm5.09-.5a1.79,1.79,0,0,0-1.75-1.81,1.86,1.86,0,0,0-1.78,1.81Z" transform="translate(-1 -10)" fill="#eee"/><path d="M232.06,333.31h1.58v1.07a2.45,2.45,0,0,1,2.14-1.21,2.35,2.35,0,0,1,2.44,2.64v4.37h-1.57v-3.9c0-1.07-.53-1.68-1.47-1.68a1.52,1.52,0,0,0-1.54,1.7v3.88h-1.58Z" transform="translate(-1 -10)" fill="#eee"/><path d="M239.69,336.78v0a3.54,3.54,0,0,1,3.56-3.59,3.45,3.45,0,0,1,2.75,1.18l-1,1.06a2.3,2.3,0,0,0-1.78-.86,2.07,2.07,0,0,0-2,2.18v0a2.09,2.09,0,0,0,2.06,2.21,2.42,2.42,0,0,0,1.78-.86l1,.94a3.6,3.6,0,0,1-6.36-2.27Z" transform="translate(-1 -10)" fill="#eee"/><path d="M246.85,336.77v0a3.41,3.41,0,0,1,3.36-3.58c2.18,0,3.29,1.72,3.29,3.69,0,.15,0,.29,0,.45h-5a1.92,1.92,0,0,0,2,1.74,2.49,2.49,0,0,0,1.86-.82l.93.82a3.47,3.47,0,0,1-2.81,1.28A3.43,3.43,0,0,1,246.85,336.77Zm5.09-.5a1.78,1.78,0,0,0-1.74-1.81,1.86,1.86,0,0,0-1.79,1.81Z" transform="translate(-1 -10)" fill="#eee"/><path d="M254.44,339.28l.7-1.06a3.91,3.91,0,0,0,2.25.84c.68,0,1.07-.29,1.07-.74v0c0-.53-.73-.71-1.54-1-1-.28-2.14-.7-2.14-2v0a2.19,2.19,0,0,1,2.44-2.09,4.79,4.79,0,0,1,2.53.78l-.63,1.12a3.91,3.91,0,0,0-1.94-.66c-.61,0-1,.29-1,.69v0c0,.49.74.7,1.55,1,1,.31,2.13.77,2.13,2v0c0,1.44-1.12,2.16-2.55,2.16A4.81,4.81,0,0,1,254.44,339.28Z" transform="translate(-1 -10)" fill="#eee"/><path d="M264.78,331.08h1.6v9.1h-1.6Z" transform="translate(-1 -10)" fill="#eee"/><path d="M268.31,333.31h1.57v1.07a2.47,2.47,0,0,1,2.15-1.21,2.36,2.36,0,0,1,2.44,2.64v4.37H272.9v-3.9c0-1.07-.54-1.68-1.47-1.68a1.53,1.53,0,0,0-1.55,1.7v3.88h-1.57Z" transform="translate(-1 -10)" fill="#eee"/><path d="M275.77,339.28l.7-1.06a3.89,3.89,0,0,0,2.25.84c.67,0,1.06-.29,1.06-.74v0c0-.53-.73-.71-1.53-1-1-.28-2.15-.7-2.15-2v0a2.19,2.19,0,0,1,2.45-2.09,4.76,4.76,0,0,1,2.52.78l-.62,1.12a4,4,0,0,0-1.94-.66c-.61,0-1,.29-1,.69v0c0,.49.74.7,1.54,1,1,.31,2.14.77,2.14,2v0c0,1.44-1.12,2.16-2.55,2.16A4.77,4.77,0,0,1,275.77,339.28Z" transform="translate(-1 -10)" fill="#eee"/><path d="M283.08,338.28v-3.61h-.87v-1.36h.87v-1.88h1.57v1.88h1.85v1.36h-1.85V338a.75.75,0,0,0,.85.86,2.16,2.16,0,0,0,1-.23v1.28a2.67,2.67,0,0,1-1.42.36A1.76,1.76,0,0,1,283.08,338.28Z" transform="translate(-1 -10)" fill="#eee"/><path d="M288,330.77h1.69v1.49H288Zm.06,2.54h1.58v6.87H288Z" transform="translate(-1 -10)" fill="#eee"/><path d="M291.82,338.28v-3.61H291v-1.36h.87v-1.88h1.57v1.88h1.85v1.36h-1.85V338a.76.76,0,0,0,.85.86,2.16,2.16,0,0,0,1-.23v1.28a2.66,2.66,0,0,1-1.41.36A1.76,1.76,0,0,1,291.82,338.28Z" transform="translate(-1 -10)" fill="#eee"/><path d="M296.61,337.68v-4.37h1.58v3.9c0,1.07.53,1.68,1.47,1.68a1.52,1.52,0,0,0,1.54-1.7v-3.88h1.58v6.87H301.2v-1.07a2.47,2.47,0,0,1-2.14,1.21A2.36,2.36,0,0,1,296.61,337.68Z" transform="translate(-1 -10)" fill="#eee"/><path d="M305,338.28v-3.61h-.87v-1.36H305v-1.88h1.58v1.88h1.84v1.36h-1.84V338a.75.75,0,0,0,.84.86,2.24,2.24,0,0,0,1-.23v1.28a2.69,2.69,0,0,1-1.42.36A1.76,1.76,0,0,1,305,338.28Z" transform="translate(-1 -10)" fill="#eee"/><path d="M309.38,336.77v0a3.41,3.41,0,0,1,3.36-3.58c2.18,0,3.29,1.72,3.29,3.69,0,.15,0,.29,0,.45h-5a1.92,1.92,0,0,0,2,1.74,2.49,2.49,0,0,0,1.86-.82l.93.82a3.49,3.49,0,0,1-2.81,1.28A3.43,3.43,0,0,1,309.38,336.77Zm5.09-.5a1.78,1.78,0,0,0-1.74-1.81,1.86,1.86,0,0,0-1.79,1.81Z" transform="translate(-1 -10)" fill="#eee"/><path d="M137.08,343.09c0-.58-.44-.85-1-.85h-1.2v2.57h.62V344h.4l.55.81h.76l-.66-.92A.79.79,0,0,0,137.08,343.09Zm-1.08.4h-.54v-.71H136c.27,0,.44.13.44.36S136.29,343.49,136,343.49Z" transform="translate(-1 -10)" fill="#eee"/><path d="M135.86,341a2.63,2.63,0,1,0,2.63,2.63A2.63,2.63,0,0,0,135.86,341Zm2.19,2.61v0a2.19,2.19,0,1,1-4.38,0h0a2.2,2.2,0,0,1,2.19-2.22A2.17,2.17,0,0,1,138.05,343.56Z" transform="translate(-1 -10)" fill="#eee"/></svg>